<svg xmlns="http://www.w3.org/2000/svg" xmlns:xlink="http://www.w3.org/1999/xlink" width="1920" zoomAndPan="magnify" viewBox="0 0 1440 809.999993" height="1080" preserveAspectRatio="xMidYMid meet" version="1.0"><defs><clipPath id="ca267693c2"><path d="M 99 19 L 1328.761719 19 L 1328.761719 802.820312 L 99 802.820312 Z M 99 19 " clip-rule="nonzero"/></clipPath></defs><g clip-path="url(#ca267693c2)"><path fill="#c9c5e3" d="M 663.191406 802.320312 L 662.035156 802.320312 C 642.515625 802.089844 624.472656 795.777344 608.496094 783.574219 C 591.027344 770.234375 575.984375 749.796875 563.769531 722.820312 C 551.558594 695.839844 544.742188 666.730469 538.132812 638.480469 C 533.414062 618.375 528.535156 597.582031 521.78125 577.792969 C 498.171875 508.644531 448.796875 447.246094 386.351562 409.320312 C 355.902344 390.828125 321.007812 376.402344 287.214844 362.449219 C 252.027344 347.910156 215.648438 332.882812 184.882812 313.378906 C 150.300781 291.492188 126.539062 266.058594 111.992188 235.625 C 92.753906 195.238281 95.664062 144.667969 119.792969 100.34375 C 143.917969 56.019531 184.808594 26.113281 229.164062 20.351562 C 301.648438 10.929688 365.722656 53.160156 427.679688 94.003906 C 451.445312 109.644531 475.945312 125.8125 500.582031 138.839844 C 581.515625 181.617188 679.117188 194.417969 768.355469 173.957031 C 805.550781 165.46875 842.238281 151.179688 877.71875 137.414062 C 935.824219 114.855469 995.902344 91.535156 1058.820312 93.332031 C 1109.738281 94.792969 1160.378906 113.464844 1205.230469 147.316406 C 1247.324219 179.089844 1282.457031 223.390625 1304.070312 272.066406 C 1318.929688 305.46875 1327.085938 338.203125 1328.316406 369.355469 C 1328.921875 383.726562 1327.929688 397.984375 1325.339844 412.128906 C 1323.121094 424.046875 1319.589844 435.5625 1314.753906 446.679688 C 1309.917969 457.796875 1303.894531 468.226562 1296.6875 477.976562 C 1281.667969 498.128906 1262.429688 513.246094 1241.050781 521.671875 C 1195.554688 539.628906 1145.738281 527.832031 1097.5625 516.425781 C 1050.886719 505.394531 1002.570312 493.9375 958.28125 509.597656 C 895.609375 531.753906 863.097656 599.550781 834.378906 659.304688 L 829.957031 668.503906 C 798.609375 733.578125 729.628906 802.320312 663.191406 802.320312 Z M 249.753906 21.140625 C 242.953125 21.136719 236.179688 21.578125 229.4375 22.453125 C 185.75 28.132812 145.464844 57.632812 121.660156 101.378906 C 97.855469 145.125 94.960938 194.941406 113.910156 234.710938 C 145.84375 301.753906 214.898438 330.277344 288.011719 360.488281 C 321.855469 374.472656 356.84375 388.925781 387.4375 407.503906 C 395.332031 412.332031 403.003906 417.496094 410.453125 422.988281 C 417.902344 428.480469 425.097656 434.28125 432.046875 440.394531 C 438.996094 446.503906 445.667969 452.90625 452.066406 459.59375 C 458.464844 466.28125 464.558594 473.230469 470.359375 480.441406 C 476.15625 487.65625 481.632812 495.105469 486.789062 502.789062 C 491.945312 510.476562 496.761719 518.367188 501.234375 526.46875 C 505.710938 534.570312 509.828125 542.847656 513.589844 551.300781 C 517.351562 559.757812 520.746094 568.359375 523.765625 577.105469 C 530.554688 596.996094 535.449219 617.839844 540.179688 637.996094 C 546.789062 666.144531 553.621094 695.253906 565.695312 721.9375 C 588.667969 772.617188 621.988281 799.714844 662.035156 800.191406 L 663.171875 800.191406 C 728.746094 800.191406 796.945312 732.078125 828.046875 667.5625 L 832.46875 658.371094 C 861.324219 598.210938 894.054688 530.03125 957.550781 507.585938 C 1002.429688 491.714844 1051.023438 503.222656 1098.019531 514.375 C 1145.882812 525.703125 1195.375 537.421875 1240.246094 519.710938 C 1282.050781 503.214844 1313.847656 461.84375 1323.226562 411.746094 C 1325.792969 397.757812 1326.773438 383.660156 1326.171875 369.449219 C 1324.949219 338.566406 1316.835938 306.097656 1302.109375 272.941406 C 1256.15625 169.644531 1158.351562 98.324219 1058.734375 95.472656 C 996.242188 93.691406 936.371094 116.925781 878.464844 139.40625 C 842.90625 153.207031 806.144531 167.472656 768.804688 176.035156 C 746.214844 181.183594 723.347656 184.289062 700.207031 185.347656 C 677.0625 186.410156 654.007812 185.40625 631.042969 182.339844 C 608.066406 179.382812 585.53125 174.414062 563.441406 167.425781 C 541.355469 160.441406 520.058594 151.550781 499.5625 140.757812 C 474.832031 127.6875 450.253906 111.488281 426.492188 95.820312 C 370.761719 59.023438 313.285156 21.140625 249.753906 21.140625 Z M 249.753906 21.140625 " fill-opacity="1" fill-rule="nonzero"/></g><path fill="#c9c5e3" d="M 667.78125 768.867188 C 665.007812 768.867188 662.234375 768.734375 659.457031 768.476562 C 624.746094 765.175781 596.410156 741.394531 575.253906 697.792969 C 563 672.535156 555.597656 646.328125 547.746094 618.578125 C 546.847656 615.398438 545.945312 612.214844 545.039062 609.023438 C 541.484375 596.546875 537.105469 581.867188 531.546875 567.253906 C 525.320312 551.054688 517.898438 535.425781 509.277344 520.363281 C 493.15625 491.996094 473.167969 465.515625 451.570312 443.792969 C 438.398438 430.335938 423.921875 418.472656 408.144531 408.199219 C 382.523438 391.710938 352.863281 378.871094 324.179688 366.453125 C 318.433594 363.960938 312.484375 361.363281 306.664062 358.816406 C 242.71875 330.394531 187.566406 302.253906 160.160156 245.605469 C 146.90625 218.1875 144.265625 185.472656 152.777344 153.484375 C 154.550781 146.8125 156.746094 140.277344 159.363281 133.886719 C 161.984375 127.496094 165.003906 121.300781 168.425781 115.304688 C 171.851562 109.304688 175.644531 103.550781 179.8125 98.046875 C 183.984375 92.539062 188.492188 87.324219 193.335938 82.402344 C 213.703125 61.925781 238.414062 49.027344 264.664062 45.105469 C 331.648438 35.253906 391.742188 73.898438 449.855469 111.300781 C 467.753906 122.816406 486.273438 134.722656 504.722656 145.042969 C 508.4375 147.121094 512.113281 149.117188 515.636719 150.984375 C 590.824219 190.351562 680.875 202.953125 762.703125 185.574219 C 796.980469 178.308594 830.789062 165.867188 863.488281 153.835938 C 911.140625 136.300781 960.421875 118.191406 1011.457031 116.078125 C 1017.804688 115.816406 1024.1875 115.804688 1030.339844 116.078125 C 1077.398438 117.902344 1124.269531 135.300781 1165.894531 166.394531 C 1204.992188 195.605469 1237.824219 236.222656 1258.398438 280.757812 C 1271.839844 309.925781 1280.019531 340.742188 1282.039062 369.867188 C 1283.074219 384.742188 1282.726562 397.828125 1280.980469 409.871094 C 1278.746094 425.574219 1274.039062 440.496094 1266.859375 454.636719 C 1252.558594 482.753906 1229.773438 504.089844 1202.691406 514.722656 C 1168.941406 528.019531 1132.941406 523.539062 1102.179688 517.394531 C 1091.332031 515.238281 1080.265625 512.660156 1069.566406 510.164062 C 1029.882812 500.921875 988.847656 491.359375 950.820312 501.042969 C 947.707031 501.832031 944.601562 502.738281 941.597656 503.78125 C 883.796875 523.605469 853.335938 584.769531 826.425781 638.71875 C 825.019531 641.546875 823.605469 644.359375 822.183594 647.152344 C 815.277344 660.8125 807.230469 673.765625 798.039062 686.003906 C 767.496094 726.882812 717.988281 768.867188 667.78125 768.867188 Z M 264.976562 47.210938 C 213.949219 54.832031 169.640625 97.753906 154.824219 154.027344 C 146.449219 185.523438 149.019531 217.679688 162.070312 244.699219 C 189.160156 300.710938 243.972656 328.628906 307.519531 356.882812 C 313.335938 359.425781 319.273438 362.015625 325.027344 364.519531 C 353.789062 376.96875 383.527344 389.84375 409.300781 406.433594 C 425.203125 416.792969 439.796875 428.75 453.082031 442.304688 C 474.808594 464.167969 494.886719 490.796875 511.136719 519.328125 C 519.800781 534.484375 527.261719 550.210938 533.523438 566.507812 C 539.117188 581.179688 543.511719 595.945312 547.101562 608.453125 C 548.019531 611.644531 548.925781 614.832031 549.820312 618.019531 C 557.652344 645.660156 564.992188 671.78125 577.171875 696.867188 C 597.988281 739.757812 625.738281 763.136719 659.660156 766.363281 C 662.375 766.617188 665.097656 766.746094 667.804688 766.746094 C 717.222656 766.746094 766.121094 725.160156 796.359375 684.679688 C 805.46875 672.546875 813.445312 659.710938 820.292969 646.167969 C 821.6875 643.375 823.101562 640.566406 824.535156 637.742188 C 851.605469 583.429688 882.292969 521.851562 940.917969 501.746094 C 943.972656 500.695312 947.128906 499.761719 950.304688 498.945312 C 988.832031 489.144531 1030.128906 498.765625 1070.058594 508.066406 C 1080.742188 510.554688 1091.789062 513.160156 1102.601562 515.28125 C 1133.058594 521.359375 1168.679688 525.804688 1201.894531 512.734375 C 1228.492188 502.296875 1250.886719 481.335938 1264.949219 453.667969 C 1272.027344 439.730469 1276.664062 425.019531 1278.859375 409.539062 C 1280.554688 397.660156 1280.929688 384.699219 1279.910156 369.984375 C 1277.898438 341.128906 1269.785156 310.527344 1256.453125 281.597656 C 1213.019531 187.398438 1122.128906 121.703125 1030.28125 118.148438 C 1024.144531 117.910156 1017.847656 117.917969 1011.558594 118.148438 C 960.851562 120.21875 911.734375 138.296875 864.234375 155.777344 C 831.46875 167.835938 797.582031 180.304688 763.160156 187.601562 C 742.289062 191.988281 721.195312 194.527344 699.878906 195.214844 C 678.5625 195.898438 657.347656 194.726562 636.238281 191.691406 C 615.011719 188.75 594.191406 184.015625 573.78125 177.488281 C 553.371094 170.957031 533.667969 162.730469 514.675781 152.808594 C 511.128906 150.957031 507.4375 148.953125 503.695312 146.867188 C 485.195312 136.511719 466.652344 124.589844 448.726562 113.066406 C 390.925781 75.878906 331.179688 37.46875 264.976562 47.210938 Z M 264.976562 47.210938 " fill-opacity="1" fill-rule="nonzero"/><path fill="#c9c5e3" d="M 671.949219 735.351562 C 669.640625 735.351562 667.363281 735.257812 665.109375 735.066406 C 633.417969 732.332031 607.050781 711.378906 586.742188 672.773438 C 573.734375 648.035156 564.992188 622.347656 555.734375 595.148438 L 555.480469 594.402344 C 551.695312 583.25 547.050781 570.054688 541.332031 556.710938 C 534.875 541.828125 527.519531 527.402344 519.265625 513.433594 C 503.195312 486.039062 485.058594 460.816406 466.8125 440.515625 C 453.945312 426.199219 442.234375 415.574219 429.957031 407.070312 C 409.300781 392.769531 386.164062 382.179688 361.671875 370.953125 C 354.882812 367.828125 347.816406 364.605469 340.90625 361.328125 C 294.085938 339.078125 235.808594 311.394531 208.339844 255.613281 C 195.925781 230.40625 193.0625 200.367188 200.269531 171.027344 C 213.175781 118.488281 253.328125 77.828125 300.171875 69.867188 C 361.613281 59.414062 417.792969 94.546875 472.097656 128.492188 C 487.953125 138.40625 504.347656 148.648438 520.652344 157.644531 C 524.046875 159.535156 527.441406 161.351562 530.714844 163.023438 C 600.167969 198.992188 682.675781 211.398438 757.074219 197.097656 C 788.476562 191.105469 819.367188 180.457031 849.289062 170.160156 C 892.816406 155.191406 937.828125 139.703125 984.5625 138.464844 C 990.386719 138.3125 996.214844 138.378906 1001.886719 138.660156 C 1045.054688 140.839844 1088.175781 156.972656 1126.578125 185.335938 C 1135.699219 192.128906 1144.382812 199.4375 1152.625 207.269531 C 1160.871094 215.101562 1168.621094 223.394531 1175.875 232.152344 C 1183.125 240.914062 1189.828125 250.074219 1195.984375 259.636719 C 1202.140625 269.199219 1207.703125 279.09375 1212.671875 289.320312 C 1218.78125 302.0625 1223.773438 315.230469 1227.640625 328.820312 C 1231.507812 342.410156 1234.199219 356.230469 1235.714844 370.28125 C 1236.851562 381.167969 1237.84375 394.113281 1236.5625 407.511719 C 1235.1875 422.378906 1231.324219 436.570312 1224.96875 450.078125 C 1212.417969 476.523438 1190.292969 497.511719 1164.28125 507.667969 C 1133.246094 519.871094 1100.261719 515.925781 1072.085938 510.453125 C 1061.902344 508.476562 1051.539062 506.109375 1041.535156 503.808594 C 1005.371094 495.550781 967.988281 487.003906 933.332031 495.457031 C 930.480469 496.160156 927.636719 496.976562 924.886719 497.882812 C 871.941406 515.382812 843.492188 569.941406 818.40625 618.078125 L 814.417969 625.714844 C 807.910156 637.992188 800.398438 649.617188 791.878906 660.59375 C 774.269531 683.464844 753.882812 702.492188 732.941406 715.605469 C 712.164062 728.589844 691.230469 735.351562 671.949219 735.351562 Z M 300.351562 70.914062 L 300.519531 71.957031 C 254.507812 79.78125 215.042969 119.804688 202.324219 171.535156 C 195.238281 200.390625 198.078125 229.914062 210.242188 254.703125 C 237.398438 309.824219 295.292969 337.328125 341.824219 359.4375 C 348.707031 362.703125 355.75 365.9375 362.554688 369.050781 C 386.054688 379.820312 410.351562 390.945312 431.160156 405.355469 C 443.585938 413.925781 455.414062 424.671875 468.382812 439.097656 C 486.722656 459.464844 504.941406 484.839844 521.082031 512.363281 C 529.390625 526.410156 536.789062 540.917969 543.285156 555.890625 C 549.03125 569.296875 553.6875 582.546875 557.492188 593.730469 L 557.746094 594.476562 C 566.96875 621.632812 575.683594 647.210938 588.628906 671.804688 C 608.570312 709.722656 634.371094 730.304688 665.292969 732.96875 C 667.558594 733.167969 669.820312 733.261719 672.082031 733.257812 C 717.0625 733.257812 762.160156 695.738281 790.222656 659.28125 C 798.664062 648.40625 806.101562 636.886719 812.542969 624.722656 C 813.867188 622.199219 815.195312 619.652344 816.523438 617.085938 C 841.804688 568.585938 870.453125 513.617188 924.214844 495.847656 C 927.027344 494.921875 929.917969 494.089844 932.832031 493.386719 C 967.972656 484.808594 1005.601562 493.386719 1042 501.730469 C 1052.023438 504.011719 1062.367188 506.378906 1072.550781 508.347656 C 1100.421875 513.761719 1133.035156 517.683594 1163.5625 505.675781 C 1189.089844 495.710938 1210.789062 475.125 1223.109375 449.15625 C 1229.359375 435.867188 1233.160156 421.914062 1234.515625 407.292969 C 1235.773438 394.085938 1234.789062 381.273438 1233.667969 370.484375 C 1232.164062 356.554688 1229.496094 342.855469 1225.660156 329.378906 C 1221.828125 315.90625 1216.878906 302.851562 1210.820312 290.21875 C 1169.933594 205.09375 1085.945312 145.042969 1001.84375 140.789062 C 996.222656 140.511719 990.453125 140.441406 984.691406 140.59375 C 938.277344 141.824219 893.425781 157.253906 850.042969 172.183594 C 820.054688 182.5 789.042969 193.167969 757.542969 199.195312 C 719.9375 206.425781 680.882812 207.0625 641.445312 201.085938 C 621.976562 198.160156 602.871094 193.660156 584.140625 187.589844 C 565.40625 181.523438 547.296875 173.964844 529.808594 164.917969 C 526.546875 163.21875 523.144531 161.414062 519.691406 159.511719 C 503.339844 150.492188 486.917969 140.222656 471.046875 130.292969 C 417.003906 96.542969 361.199219 61.636719 300.511719 71.957031 Z M 300.351562 70.914062 " fill-opacity="1" fill-rule="nonzero"/><path fill="#c9c5e3" d="M 676.308594 701.816406 C 674.449219 701.816406 672.605469 701.746094 670.785156 701.609375 C 642.09375 699.464844 617.683594 681.34375 598.242188 647.765625 C 584.886719 624.707031 574.820312 601.460938 565.925781 579.789062 C 561.878906 569.902344 556.957031 558.179688 551.125 546.171875 C 545.132812 533.882812 537.972656 520.898438 529.222656 506.472656 C 512.816406 479.417969 496.507812 455.460938 482.039062 437.199219 C 470.488281 422.644531 461.433594 413.292969 451.75 405.941406 C 435.207031 393.375 416.300781 384.132812 396.289062 374.355469 C 389.355469 370.960938 382.183594 367.464844 375.160156 363.824219 C 331.265625 341.097656 281.511719 315.339844 256.507812 265.609375 C 244.917969 242.558594 241.808594 215.199219 247.75 188.570312 C 249 182.988281 250.59375 177.503906 252.535156 172.125 C 254.476562 166.742188 256.75 161.503906 259.351562 156.410156 C 261.953125 151.316406 264.867188 146.410156 268.089844 141.683594 C 271.316406 136.957031 274.824219 132.453125 278.617188 128.171875 C 294.578125 110.433594 314.300781 98.832031 335.664062 94.625 C 391.671875 83.589844 444.007812 115.21875 494.613281 145.804688 C 508.320312 154.097656 522.5 162.660156 536.5625 170.28125 C 539.71875 171.976562 542.816406 173.625 545.777344 175.136719 C 609.53125 207.707031 684.492188 219.933594 751.441406 208.691406 C 779.886719 203.957031 807.960938 195.113281 835.117188 186.558594 C 874.511719 174.140625 915.246094 161.300781 957.671875 160.910156 C 962.964844 160.859375 968.261719 161.003906 973.414062 161.335938 C 1012.714844 163.882812 1052.082031 178.742188 1087.25 204.320312 C 1095.625 210.410156 1103.613281 216.96875 1111.210938 224.003906 C 1118.808594 231.039062 1125.964844 238.496094 1132.679688 246.378906 C 1139.394531 254.261719 1145.617188 262.511719 1151.355469 271.132812 C 1157.09375 279.753906 1162.300781 288.679688 1166.980469 297.917969 C 1178.011719 319.769531 1185.550781 344.261719 1189.417969 370.707031 C 1191.203125 382.894531 1192.644531 393.890625 1192.195312 405.167969 C 1191.949219 412.121094 1191.0625 418.992188 1189.535156 425.777344 C 1188.007812 432.5625 1185.867188 439.152344 1183.113281 445.539062 C 1181.75 448.652344 1180.238281 451.691406 1178.578125 454.65625 C 1176.917969 457.621094 1175.117188 460.5 1173.171875 463.285156 C 1171.230469 466.074219 1169.15625 468.761719 1166.953125 471.347656 C 1164.746094 473.933594 1162.417969 476.402344 1159.972656 478.761719 C 1157.523438 481.117188 1154.96875 483.351562 1152.300781 485.457031 C 1149.636719 487.566406 1146.871094 489.539062 1144.011719 491.375 C 1141.152344 493.210938 1138.210938 494.902344 1135.1875 496.453125 C 1132.160156 498 1129.066406 499.398438 1125.90625 500.640625 C 1097.59375 511.75 1067.621094 508.332031 1042.042969 503.527344 C 1032.539062 501.738281 1022.839844 499.574219 1013.453125 497.476562 C 980.839844 490.195312 947.105469 482.667969 915.859375 489.90625 C 913.261719 490.507812 910.679688 491.214844 908.21875 492.003906 C 860.109375 507.1875 834.84375 553.105469 810.40625 597.523438 L 806.671875 604.3125 C 800.582031 615.191406 793.621094 625.484375 785.792969 635.1875 C 752.050781 677.296875 711.589844 701.816406 676.308594 701.816406 Z M 335.867188 95.667969 L 336.070312 96.703125 C 295.003906 104.800781 260.34375 141.902344 249.820312 189.027344 C 243.984375 215.191406 247.03125 242.042969 258.410156 264.660156 C 283.097656 313.769531 332.523438 339.339844 376.132812 361.941406 C 383.136719 365.5625 390.296875 369.066406 397.222656 372.445312 C 417.328125 382.238281 436.296875 391.574219 453.039062 404.253906 C 462.867188 411.722656 472.03125 421.175781 483.699219 435.882812 C 498.222656 454.214844 514.589844 478.246094 531.039062 505.371094 C 539.820312 519.855469 547.019531 532.898438 553.035156 545.257812 C 558.890625 557.316406 563.828125 569.078125 567.886719 578.988281 C 576.753906 600.597656 586.785156 623.765625 600.074219 646.710938 C 619.152344 679.648438 642.992188 697.410156 670.945312 699.507812 C 706.777344 702.1875 749.023438 677.644531 784.0625 633.855469 C 791.8125 624.25 798.707031 614.066406 804.742188 603.304688 C 805.984375 601.039062 807.226562 598.777344 808.46875 596.515625 C 831.960938 553.828125 858.582031 505.4375 907.507812 490 C 910.050781 489.152344 912.691406 488.472656 915.347656 487.863281 C 947.078125 480.511719 981.050781 488.089844 1013.902344 495.421875 C 1023.238281 497.519531 1032.945312 499.667969 1042.417969 501.457031 C 1067.707031 506.210938 1097.308594 509.59375 1125.125 498.683594 C 1128.222656 497.460938 1131.25 496.09375 1134.210938 494.574219 C 1137.171875 493.058594 1140.054688 491.398438 1142.855469 489.597656 C 1145.652344 487.800781 1148.359375 485.867188 1150.96875 483.804688 C 1153.578125 481.738281 1156.082031 479.554688 1158.476562 477.246094 C 1160.875 474.933594 1163.152344 472.515625 1165.3125 469.980469 C 1167.472656 467.449219 1169.503906 464.820312 1171.402344 462.085938 C 1173.304688 459.355469 1175.070312 456.539062 1176.695312 453.636719 C 1178.320312 450.734375 1179.800781 447.757812 1181.136719 444.707031 C 1183.839844 438.441406 1185.9375 431.980469 1187.4375 425.320312 C 1188.933594 418.660156 1189.800781 411.921875 1190.039062 405.101562 C 1190.480469 394.011719 1189.054688 383.113281 1187.289062 371.035156 C 1183.453125 344.8125 1175.96875 320.542969 1165.054688 298.902344 C 1126.109375 221.675781 1050.835938 168.507812 973.261719 163.492188 C 968.167969 163.160156 962.921875 163.015625 957.679688 163.066406 C 915.570312 163.457031 874.976562 176.246094 835.738281 188.613281 C 808.511719 197.191406 780.371094 206.058594 751.769531 210.8125 C 717.824219 216.523438 682.394531 216.414062 646.539062 210.5 C 628.824219 207.585938 611.4375 203.328125 594.378906 197.722656 C 577.324219 192.117188 560.800781 185.230469 544.8125 177.0625 C 541.839844 175.542969 538.726562 173.894531 535.554688 172.183594 C 521.441406 164.542969 507.25 155.957031 493.519531 147.65625 C 443.261719 117.273438 391.28125 85.855469 336.070312 96.738281 Z M 335.867188 95.667969 " fill-opacity="1" fill-rule="nonzero"/><path fill="#c9c5e3" d="M 680.707031 668.234375 C 679.289062 668.234375 677.871094 668.234375 676.460938 668.105469 C 650.738281 666.554688 628.292969 651.304688 609.734375 622.761719 C 597.507812 604.210938 586.386719 585.019531 576.371094 565.191406 C 572.011719 556.457031 566.757812 546.128906 560.917969 535.648438 C 553.875 523.0625 545.972656 510.324219 539.183594 499.523438 L 531.945312 488.007812 C 520.132812 469.175781 507.921875 449.707031 497.246094 433.878906 C 489.863281 422.957031 482.496094 412.511719 473.523438 404.796875 C 460.695312 393.765625 445.519531 385.753906 429.503906 377.273438 C 422.902344 373.777344 416.070312 370.171875 409.382812 366.320312 L 406.3125 364.542969 C 369.125 343.140625 326.972656 318.878906 304.679688 275.605469 C 293.910156 254.710938 290.546875 230.035156 295.234375 206.109375 C 299.203125 185.828125 308.4375 166.273438 321.21875 151.066406 C 334.964844 134.714844 352.226562 123.757812 371.144531 119.386719 L 371.382812 120.421875 L 371.144531 119.386719 C 421.773438 107.683594 470.4375 135.902344 517.453125 163.1875 C 528.90625 169.832031 540.746094 176.695312 552.476562 182.917969 C 555.351562 184.445312 558.167969 185.894531 560.835938 187.238281 C 619.78125 216.855469 685.464844 228.582031 745.839844 220.265625 C 771.402344 216.804688 796.621094 209.75 821.019531 202.9375 C 856.265625 193.082031 892.742188 182.898438 930.820312 183.351562 C 935.578125 183.410156 940.347656 183.621094 944.984375 184.003906 C 980.414062 186.914062 1016.023438 200.507812 1047.957031 223.3125 C 1055.558594 228.734375 1062.824219 234.570312 1069.753906 240.824219 C 1076.683594 247.078125 1083.234375 253.707031 1089.40625 260.710938 C 1095.578125 267.714844 1101.332031 275.046875 1106.664062 282.707031 C 1111.996094 290.371094 1116.875 298.3125 1121.296875 306.53125 C 1131.015625 324.726562 1138.152344 345.867188 1143.125 371.148438 L 1143.972656 375.238281 C 1145.773438 384.164062 1147.625 393.398438 1147.851562 402.835938 C 1148.054688 409.355469 1147.605469 415.832031 1146.5 422.261719 C 1145.394531 428.691406 1143.660156 434.945312 1141.292969 441.023438 C 1131.957031 464.539062 1111.878906 484.210938 1087.582031 493.640625 C 1061.84375 503.636719 1034.964844 500.761719 1012.050781 496.628906 C 1003.191406 495.03125 994.152344 493.074219 985.414062 491.179688 C 956.347656 484.875 926.289062 478.355469 898.417969 484.390625 C 896.082031 484.898438 893.757812 485.496094 891.507812 486.164062 C 848.230469 499.03125 824.882812 538.703125 802.324219 577.070312 L 798.878906 582.925781 C 793.1875 592.410156 786.773438 601.371094 779.632812 609.8125 C 748.257812 647.160156 712.496094 668.234375 680.707031 668.234375 Z M 395.753906 118.71875 C 387.609375 118.707031 379.566406 119.621094 371.628906 121.457031 C 335.507812 129.800781 305.652344 163.984375 297.328125 206.519531 C 292.738281 229.976562 296.023438 254.167969 306.570312 274.640625 C 328.574219 317.351562 370.441406 341.445312 407.382812 362.71875 L 410.445312 364.484375 C 417.105469 368.320312 423.921875 371.917969 430.507812 375.40625 C 446.632812 383.9375 461.90625 392 474.917969 403.199219 C 484.082031 411.085938 491.550781 421.648438 499.019531 432.699219 C 509.710938 448.5625 521.933594 468.046875 533.753906 486.886719 L 540.984375 498.402344 C 547.773438 509.230469 555.707031 521.996094 562.777344 534.621094 C 568.640625 545.136719 573.902344 555.5 578.28125 564.25 C 588.257812 584.011719 599.335938 603.136719 611.523438 621.617188 C 629.691406 649.554688 651.578125 664.492188 676.597656 665.992188 C 677.96875 666.078125 679.34375 666.121094 680.722656 666.121094 C 711.875 666.121094 747.042969 645.320312 777.917969 608.414062 C 784.984375 600.066406 791.335938 591.207031 796.96875 581.832031 L 800.414062 575.976562 C 823.175781 537.261719 846.71875 497.222656 890.824219 484.109375 C 893.121094 483.433594 895.5 482.820312 897.882812 482.304688 C 926.203125 476.175781 956.492188 482.746094 985.777344 489.09375 C 994.5 490.984375 1003.523438 492.945312 1012.339844 494.53125 C 1034.964844 498.613281 1061.492188 501.457031 1086.742188 491.65625 C 1110.503906 482.429688 1130.132812 463.207031 1139.253906 440.234375 C 1141.566406 434.289062 1143.261719 428.175781 1144.339844 421.886719 C 1145.417969 415.601562 1145.859375 409.269531 1145.664062 402.894531 C 1145.441406 393.636719 1143.609375 384.496094 1141.828125 375.660156 L 1140.976562 371.5625 C 1136.046875 346.492188 1128.976562 325.550781 1119.355469 307.53125 C 1083.03125 239.511719 1014.496094 191.851562 944.746094 186.125 C 940.164062 185.75 935.410156 185.53125 930.726562 185.480469 C 892.925781 185.039062 856.628906 195.179688 821.523438 205 C 797.0625 211.832031 771.765625 218.898438 746.058594 222.386719 C 733.167969 224.148438 720.214844 225.023438 707.199219 225.011719 C 657.84375 225.011719 606.730469 212.703125 559.859375 189.144531 C 557.175781 187.796875 554.351562 186.335938 551.457031 184.808594 C 539.726562 178.5625 527.863281 171.671875 516.398438 164.984375 C 475.535156 141.316406 436.566406 118.71875 395.753906 118.71875 Z M 395.753906 118.71875 " fill-opacity="1" fill-rule="nonzero"/><path fill="#c9c5e3" d="M 684.949219 634.601562 C 684 634.601562 683.054688 634.601562 682.097656 634.542969 C 659.3125 633.601562 638.816406 621.226562 621.242188 597.777344 C 618.195312 593.714844 615.097656 589.699219 612.101562 585.8125 C 603.683594 574.882812 594.976562 563.578125 586.84375 550.601562 L 586.257812 549.675781 C 581.347656 541.808594 576.261719 533.671875 570.722656 525.125 C 567.183594 519.710938 563.542969 514.246094 559.6875 508.457031 C 556.292969 503.308594 552.695312 497.984375 549.15625 492.582031 C 534.644531 470.457031 521.195312 446.632812 512.46875 430.542969 C 511.820312 429.34375 511.179688 428.164062 510.550781 427.003906 C 505.519531 417.671875 501.175781 409.652344 495.277344 403.625 C 485.855469 393.957031 474.058594 387.058594 461.550781 379.753906 C 455.609375 376.308594 449.550781 372.734375 443.585938 368.796875 C 440.976562 367.097656 438.324219 365.359375 435.632812 363.578125 C 405.886719 344.117188 372.179688 322.0625 352.839844 285.613281 C 350.332031 280.898438 348.226562 276.015625 346.515625 270.957031 C 344.808594 265.902344 343.527344 260.738281 342.664062 255.472656 C 341.804688 250.203125 341.375 244.902344 341.382812 239.566406 C 341.390625 234.226562 341.832031 228.925781 342.707031 223.660156 C 344.113281 214.632812 346.605469 205.910156 350.175781 197.5 C 353.746094 189.085938 358.292969 181.238281 363.8125 173.957031 C 375.335938 158.992188 390.121094 148.683594 406.601562 144.140625 L 406.890625 145.167969 L 406.601562 144.140625 C 451.945312 131.660156 497.109375 156.566406 540.796875 180.632812 C 549.828125 185.605469 559.164062 190.757812 568.378906 195.511719 C 570.96875 196.851562 573.46875 198.125 575.878906 199.304688 C 629.160156 225.527344 687.496094 237.070312 740.160156 231.808594 C 762.855469 229.617188 785.25 224.363281 806.898438 219.289062 C 837.984375 212 870.125 204.464844 903.875 205.753906 C 908.117188 205.914062 912.359375 206.210938 916.46875 206.601562 C 979.089844 213.113281 1041.523438 255.679688 1075.523438 315.070312 C 1086.179688 333.679688 1092.242188 354.039062 1096.738281 371.511719 C 1097.316406 373.761719 1097.953125 376.050781 1098.570312 378.300781 C 1100.546875 385.4375 1102.59375 392.8125 1103.347656 400.460938 C 1104 406.535156 1103.988281 412.605469 1103.308594 418.675781 C 1102.628906 424.746094 1101.296875 430.671875 1099.316406 436.449219 C 1091.453125 458.746094 1072.671875 477.484375 1049.078125 486.597656 C 1026.039062 495.492188 1002.171875 493.148438 981.867188 489.679688 C 973.632812 488.277344 965.230469 486.519531 957.109375 484.824219 C 931.652344 479.496094 905.257812 473.988281 880.800781 478.808594 C 878.722656 479.214844 876.660156 479.707031 874.664062 480.25 C 836.382812 490.753906 815.074219 523.9375 794.457031 556.023438 C 793.289062 557.859375 792.113281 559.683594 790.9375 561.5 C 785.664062 569.597656 779.792969 577.234375 773.328125 584.414062 C 756.550781 603.363281 723.019531 634.59375 684.949219 634.601562 Z M 432.128906 142.859375 C 423.664062 142.84375 415.355469 143.953125 407.195312 146.195312 C 375.53125 154.921875 351.058594 185.453125 344.828125 224.007812 C 343.96875 229.160156 343.535156 234.351562 343.527344 239.574219 C 343.519531 244.800781 343.9375 249.988281 344.777344 255.144531 C 345.621094 260.300781 346.878906 265.351562 348.550781 270.304688 C 350.222656 275.253906 352.285156 280.035156 354.738281 284.644531 C 373.824219 320.617188 407.296875 342.515625 436.820312 361.871094 C 439.511719 363.636719 442.175781 365.375 444.78125 367.097656 C 450.722656 371.011719 456.773438 374.566406 462.644531 377.996094 C 475.273438 385.378906 487.195312 392.355469 496.820312 402.226562 C 502.90625 408.460938 507.316406 416.652344 512.425781 426.070312 C 513.046875 427.234375 513.683594 428.40625 514.335938 429.601562 C 523.050781 445.660156 536.46875 469.429688 550.9375 491.492188 C 554.476562 496.890625 558.023438 502.210938 561.460938 507.355469 C 565.324219 513.152344 568.972656 518.617188 572.496094 524.046875 C 578.054688 532.609375 583.136719 540.757812 588.058594 548.660156 L 588.636719 549.585938 C 596.714844 562.464844 605.007812 573.226562 613.78125 584.617188 C 616.785156 588.511719 619.882812 592.535156 622.9375 596.609375 C 640.132812 619.519531 660.066406 631.605469 682.191406 632.523438 C 683.105469 632.523438 684.03125 632.582031 684.949219 632.582031 C 722.179688 632.582031 755.183594 601.785156 771.765625 583.105469 C 778.160156 576.019531 783.964844 568.476562 789.179688 560.480469 C 790.351562 558.671875 791.523438 556.847656 792.703125 555.015625 C 813.527344 522.589844 835.066406 489.058594 874.171875 478.339844 C 876.21875 477.78125 878.332031 477.277344 880.453125 476.863281 C 905.335938 471.957031 931.914062 477.507812 957.609375 482.878906 C 965.714844 484.578125 974.089844 486.324219 982.289062 487.71875 C 1002.308594 491.113281 1025.824219 493.464844 1048.382812 484.757812 C 1071.40625 475.863281 1089.71875 457.597656 1097.382812 435.882812 C 1099.308594 430.25 1100.605469 424.476562 1101.265625 418.558594 C 1101.925781 412.644531 1101.941406 406.726562 1101.304688 400.808594 C 1100.566406 393.339844 1098.546875 386.050781 1096.59375 379.007812 C 1095.972656 376.78125 1095.339844 374.484375 1094.753906 372.214844 C 1090.269531 354.886719 1084.261719 334.691406 1073.730469 316.300781 C 1040.066406 257.488281 978.265625 215.308594 916.296875 208.894531 C 912.234375 208.46875 908.042969 208.179688 903.839844 208.046875 C 870.386719 206.773438 838.382812 214.273438 807.433594 221.523438 C 785.71875 226.613281 763.253906 231.882812 740.390625 234.089844 C 732.007812 234.9375 723.417969 235.347656 714.828125 235.347656 C 668.882812 235.347656 620.113281 223.601562 574.972656 201.402344 C 572.570312 200.222656 570.035156 198.941406 567.429688 197.589844 C 558.1875 192.820312 548.835938 187.667969 539.796875 182.6875 C 503.007812 162.234375 467.863281 142.859375 432.128906 142.859375 Z M 432.128906 142.859375 " fill-opacity="1" fill-rule="nonzero"/><path fill="#c9c5e3" d="M 683.3125 603.941406 C 681.324219 603.941406 679.34375 603.839844 677.371094 603.632812 C 659.355469 601.726562 644.347656 591.355469 632.773438 572.820312 C 619.917969 562.773438 609.683594 551.28125 597.351562 536.039062 C 592.445312 529.945312 587.117188 523.113281 580.566406 514.628906 C 574.011719 506.140625 566.484375 496.332031 559.144531 485.648438 C 546.8125 467.714844 535.0625 445.886719 527.695312 427.21875 C 526.496094 424.214844 525.496094 421.414062 524.519531 418.730469 C 522.21875 412.316406 520.226562 406.765625 517.042969 402.488281 C 510.816406 394.113281 502.003906 388.195312 492.679688 381.925781 C 487.78125 378.640625 482.714844 375.238281 477.8125 371.332031 C 473.804688 368.144531 469.605469 364.945312 465.148438 361.550781 C 442.652344 344.398438 417.148438 324.964844 401.042969 295.683594 C 398.75 291.574219 396.792969 287.3125 395.167969 282.894531 C 393.542969 278.476562 392.269531 273.960938 391.351562 269.347656 C 390.433594 264.730469 389.878906 260.070312 389.691406 255.371094 C 389.5 250.667969 389.679688 245.980469 390.222656 241.304688 C 394.3125 206.578125 414.671875 178.199219 442.089844 169 C 482.285156 155.523438 524.359375 177.324219 565.050781 198.40625 C 571.367188 201.671875 577.890625 205.050781 584.316406 208.257812 C 586.667969 209.421875 588.839844 210.488281 590.96875 211.507812 C 638.492188 234.3125 689.53125 245.667969 734.585938 243.503906 C 754.335938 242.550781 773.835938 239.125 792.691406 235.8125 C 819.664062 231.078125 847.558594 226.179688 877.023438 228.3125 C 880.730469 228.574219 884.441406 228.949219 888.054688 229.421875 C 915.765625 233.074219 943.847656 244.121094 969.269531 261.382812 C 993.804688 278.042969 1014.757812 299.625 1029.855469 323.808594 C 1039.335938 339 1044.996094 355.8125 1050.46875 372.074219 C 1051.320312 374.667969 1052.34375 377.316406 1053.3125 379.878906 C 1055.527344 385.742188 1057.8125 391.8125 1059 398.21875 C 1060.113281 403.832031 1060.542969 409.496094 1060.289062 415.214844 C 1060.035156 420.929688 1059.109375 426.535156 1057.503906 432.027344 C 1051.191406 452.796875 1033.277344 471.066406 1010.753906 479.699219 C 990.292969 487.546875 968.53125 485.519531 951.867188 482.878906 C 944.226562 481.675781 936.429688 480.121094 928.882812 478.636719 C 906.996094 474.273438 884.371094 469.769531 863.359375 473.402344 C 861.542969 473.714844 859.738281 474.097656 857.996094 474.519531 C 824.476562 482.734375 805.09375 509.730469 786.355469 535.84375 L 783.179688 540.257812 C 778.300781 546.929688 772.976562 553.226562 767.199219 559.140625 C 739.703125 587.535156 708.847656 603.941406 683.3125 603.941406 Z M 442.429688 169.933594 L 442.769531 170.933594 C 416.121094 179.871094 396.324219 207.5625 392.328125 241.480469 C 391.796875 246.046875 391.625 250.625 391.808594 255.21875 C 391.996094 259.8125 392.535156 264.359375 393.433594 268.867188 C 394.332031 273.375 395.574219 277.785156 397.160156 282.101562 C 398.75 286.414062 400.664062 290.578125 402.902344 294.589844 C 418.789062 323.445312 444.101562 342.761719 466.429688 359.785156 C 470.894531 363.179688 475.113281 366.394531 479.160156 369.59375 C 483.996094 373.445312 489.023438 376.824219 493.882812 380.09375 C 503.363281 386.457031 512.324219 392.480469 518.773438 401.148438 C 522.167969 405.679688 524.179688 411.332031 526.539062 417.941406 C 527.507812 420.632812 528.507812 423.425781 529.6875 426.429688 C 537.003906 444.972656 548.671875 466.671875 560.910156 484.476562 C 568.21875 495.109375 575.761719 504.960938 582.261719 513.328125 C 588.761719 521.699219 594.144531 528.605469 599.03125 534.714844 C 611.320312 549.898438 621.496094 561.3125 634.257812 571.265625 L 634.410156 571.386719 L 634.515625 571.546875 C 645.742188 589.605469 660.246094 599.6875 677.632812 601.539062 C 679.539062 601.738281 681.453125 601.835938 683.371094 601.835938 C 708.3125 601.835938 738.601562 585.660156 765.6875 557.585938 C 771.394531 551.738281 776.65625 545.515625 781.472656 538.917969 L 784.648438 534.503906 C 803.613281 508.085938 823.226562 480.765625 857.503906 472.355469 C 859.296875 471.914062 861.152344 471.507812 863.011719 471.203125 C 884.414062 467.511719 907.242188 472.050781 929.316406 476.457031 C 936.835938 477.949219 944.59375 479.503906 952.230469 480.699219 C 968.636719 483.304688 990.039062 485.300781 1010.03125 477.636719 C 1031.953125 469.226562 1049.382812 451.480469 1055.511719 431.324219 C 1057.0625 425.992188 1057.960938 420.554688 1058.207031 415.007812 C 1058.449219 409.460938 1058.03125 403.964844 1056.953125 398.515625 C 1055.800781 392.296875 1053.558594 386.320312 1051.359375 380.542969 C 1050.394531 377.996094 1049.382812 375.304688 1048.5 372.667969 C 1043.0625 356.542969 1037.46875 339.832031 1028.082031 324.84375 C 997.074219 275.257812 942.019531 238.597656 887.777344 231.441406 C 884.21875 230.976562 880.554688 230.59375 876.878906 230.347656 C 847.667969 228.242188 819.917969 233.113281 793.066406 237.824219 C 774.140625 241.152344 754.582031 244.613281 734.695312 245.539062 C 689.277344 247.726562 637.925781 236.273438 590.054688 213.359375 C 587.914062 212.332031 585.726562 211.261719 583.367188 210.082031 C 576.933594 206.875 570.398438 203.488281 564.074219 200.222656 C 523.78125 179.34375 482.105469 157.789062 442.769531 170.941406 Z M 442.429688 169.933594 " fill-opacity="1" fill-rule="nonzero"/><path fill="#c9c5e3" d="M 686.492188 570.996094 C 684.667969 571 682.851562 570.90625 681.035156 570.714844 C 666.421875 569.214844 654.074219 561.523438 644.339844 547.871094 C 631.859375 541.292969 620.945312 533.390625 607.890625 521.476562 C 602.085938 516.164062 596.207031 510.324219 590.390625 504.121094 C 582.753906 496.089844 575.65625 487.605469 569.109375 478.664062 C 556.964844 461.910156 546.679688 440.347656 542.910156 423.730469 C 541.59375 417.96875 540.816406 413.148438 540.128906 408.894531 C 539.660156 406 539.277344 403.488281 538.742188 401.085938 C 534.066406 394.976562 528.558594 389.707031 522.679688 384.113281 C 519.226562 380.832031 515.652344 377.4375 511.984375 373.617188 C 507.132812 368.574219 501.378906 363.339844 495.285156 357.804688 C 479.574219 343.589844 461.753906 327.417969 449.21875 305.625 C 440.734375 290.898438 436.753906 274.714844 437.710938 258.8125 C 438.066406 251.960938 439.195312 245.246094 441.105469 238.65625 C 443.019531 232.070312 445.65625 225.789062 449.023438 219.816406 C 456.085938 207.613281 465.945312 198.601562 477.539062 193.703125 C 512.867188 178.835938 552.550781 197.945312 590.9375 216.355469 L 600.21875 220.808594 L 606.023438 223.542969 C 648.296875 243.0625 691.96875 254.273438 728.992188 255.011719 C 745.964844 255.359375 762.734375 253.746094 778.9375 252.183594 C 801.664062 250.003906 825.152344 247.746094 850.15625 250.683594 C 853.347656 251.054688 856.519531 251.53125 859.601562 252.023438 C 907.507812 260.117188 955.21875 290.890625 984.113281 332.332031 C 991.429688 342.820312 996.402344 354.394531 1001.214844 365.664062 C 1002.183594 367.929688 1003.152344 370.175781 1004.125 372.402344 C 1005.28125 375.035156 1006.621094 377.691406 1007.917969 380.261719 C 1010.40625 385.191406 1013.011719 390.285156 1014.570312 395.785156 C 1017.738281 406.714844 1018.09375 417.363281 1015.625 427.414062 C 1010.71875 447.007812 994.136719 464.328125 972.34375 472.621094 C 954.589844 479.410156 935.996094 477.925781 921.789062 475.90625 C 914.667969 474.902344 907.414062 473.546875 900.394531 472.238281 C 882.175781 468.84375 863.335938 465.332031 845.828125 467.78125 C 844.273438 468.003906 842.722656 468.273438 841.226562 468.582031 C 812.375 474.519531 794.855469 495.457031 777.945312 515.6875 L 775.320312 518.820312 C 770.84375 524.070312 766.0625 529.03125 760.980469 533.699219 C 748.546875 545.257812 717.375 570.996094 686.492188 570.996094 Z M 477.957031 194.6875 L 478.363281 195.664062 C 456.714844 204.777344 441.582031 229.609375 439.824219 258.9375 C 438.898438 274.425781 442.789062 290.203125 451.0625 304.5625 C 463.441406 326.066406 481.121094 342.125 496.710938 356.328125 C 502.835938 361.886719 508.589844 367.140625 513.511719 372.242188 C 517.152344 376.019531 520.703125 379.40625 524.136719 382.671875 C 530.121094 388.367188 535.773438 393.703125 540.578125 400.070312 L 540.722656 400.257812 L 540.773438 400.492188 C 541.308594 403.039062 541.746094 405.738281 542.222656 408.632812 C 542.902344 412.875 543.675781 417.636719 544.980469 423.332031 C 548.691406 439.699219 558.839844 460.960938 570.832031 477.492188 C 577.324219 486.347656 584.363281 494.75 591.945312 502.695312 C 597.714844 508.875 603.5625 514.671875 609.316406 519.949219 C 622.308594 531.832031 633.148438 539.636719 645.554688 546.148438 L 645.773438 546.265625 L 645.929688 546.46875 C 655.3125 559.734375 667.195312 567.195312 681.25 568.644531 C 712.988281 571.921875 746.59375 544.230469 759.546875 532.152344 C 764.5625 527.542969 769.28125 522.648438 773.699219 517.460938 L 776.324219 514.339844 C 793.464844 493.828125 811.203125 472.621094 840.820312 466.511719 C 842.355469 466.195312 843.953125 465.914062 845.546875 465.660156 C 863.367188 463.15625 882.414062 466.707031 900.800781 470.132812 C 907.796875 471.441406 915.035156 472.789062 922.105469 473.792969 C 936.0625 475.777344 954.308594 477.1875 971.605469 470.625 C 992.753906 462.570312 1008.835938 445.820312 1013.570312 426.886719 C 1015.957031 417.203125 1015.609375 406.925781 1012.542969 396.335938 C 1011 391.03125 1008.46875 386.023438 1006.027344 381.1875 C 1004.71875 378.589844 1003.363281 375.910156 1002.191406 373.226562 C 1001.207031 370.996094 1000.238281 368.738281 999.269531 366.4375 C 994.5 355.304688 989.570312 343.796875 982.382812 333.484375 C 953.800781 292.496094 906.625 262.0625 859.253906 254.058594 C 856.214844 253.542969 853.074219 253.101562 849.917969 252.734375 C 825.136719 249.824219 801.765625 252.066406 779.148438 254.238281 C 762.890625 255.800781 746.050781 257.421875 728.960938 257.070312 C 691.621094 256.324219 647.667969 245.082031 605.152344 225.402344 C 603.207031 224.507812 601.261719 223.59375 599.320312 222.667969 C 596.222656 221.199219 593.125 219.707031 589.984375 218.222656 C 552.035156 199.976562 512.757812 181.117188 478.335938 195.613281 Z M 477.957031 194.6875 " fill-opacity="1" fill-rule="nonzero"/><path fill="#c9c5e3" d="M 688.972656 538.152344 C 675.886719 538.152344 664.820312 533.0625 655.949219 522.945312 C 642.636719 519.527344 630.148438 514.1875 618.472656 506.929688 C 612.078125 502.941406 606.007812 498.507812 600.261719 493.625 C 592.40625 487.097656 585.335938 479.816406 579.046875 471.773438 C 567.054688 456.242188 558.679688 435.566406 558.117188 420.316406 C 557.925781 413.921875 558.578125 407.613281 560.070312 401.394531 C 560.1875 400.816406 560.308594 400.246094 560.417969 399.695312 C 558.085938 394.375 555.054688 389.808594 551.566406 384.523438 C 549.808594 381.875 547.992188 379.132812 546.085938 376.035156 C 541.621094 368.660156 534.441406 360.851562 526.847656 352.535156 C 517.136719 341.929688 506.128906 329.902344 497.40625 315.613281 C 489.691406 302.992188 485.464844 289.429688 485.203125 276.394531 C 484.667969 250.453125 495.308594 228.261719 512.960938 218.492188 L 513.480469 219.425781 L 512.960938 218.492188 C 543.972656 201.339844 583.976562 219.121094 616.125 233.410156 L 621.078125 235.609375 C 659.980469 252.726562 694.417969 263.148438 723.433594 266.578125 C 737.863281 268.273438 752.035156 268.527344 765.765625 268.773438 C 784.054688 269.097656 802.980469 269.429688 823.3125 273.101562 C 825.976562 273.585938 828.625 274.113281 831.171875 274.671875 C 872.109375 283.71875 912.191406 308.476562 938.371094 340.867188 C 944.3125 348.199219 948.734375 356.347656 953.027344 364.230469 C 954.640625 367.191406 956.160156 369.984375 957.765625 372.757812 C 959.171875 375.1875 960.800781 377.613281 962.371094 379.957031 C 965.199219 384.199219 968.125 388.527344 970.136719 393.363281 C 974.3125 403.386719 975.527344 413.300781 973.753906 422.828125 C 970.289062 441 954.675781 457.777344 933.96875 465.585938 C 922.230469 470.007812 909.210938 471.050781 891.746094 468.980469 C 885.035156 468.183594 878.167969 467.019531 871.566406 465.890625 C 857.140625 463.4375 842.210938 460.898438 828.285156 462.222656 C 826.988281 462.351562 825.695312 462.511719 824.449219 462.699219 C 799.921875 466.425781 784.191406 481.453125 768.964844 495.992188 L 767.429688 497.460938 C 764.035156 500.703125 759.882812 504.25 754.699219 508.324219 C 736.605469 522.648438 719.769531 531.941406 704.679688 535.9375 C 699.539062 537.351562 694.304688 538.089844 688.972656 538.152344 Z M 541.882812 213.535156 C 531.980469 213.535156 522.660156 215.574219 513.988281 220.324219 C 497.015625 229.710938 486.832031 251.164062 487.324219 276.335938 C 487.585938 289 491.695312 302.1875 499.207031 314.527344 C 507.828125 328.636719 518.722656 340.578125 528.398438 351.121094 C 536.035156 359.496094 543.308594 367.40625 547.917969 374.882812 C 549.820312 377.96875 551.625 380.695312 553.367188 383.324219 C 556.980469 388.789062 560.105469 393.507812 562.53125 399.136719 L 562.667969 399.441406 L 562.597656 399.765625 C 562.464844 400.425781 562.328125 401.105469 562.183594 401.800781 C 560.730469 407.855469 560.089844 414 560.265625 420.226562 C 560.78125 435.066406 569.023438 455.257812 580.761719 470.457031 C 586.945312 478.378906 593.898438 485.554688 601.621094 491.984375 C 607.289062 496.808594 613.285156 501.1875 619.601562 505.125 C 631.195312 512.324219 643.601562 517.609375 656.824219 520.976562 L 657.136719 521.0625 L 657.351562 521.308594 C 669.035156 534.800781 684.804688 539.035156 704.222656 533.902344 C 719.03125 529.980469 735.621094 520.824219 753.441406 506.675781 C 758.535156 502.644531 762.640625 499.132812 765.984375 495.941406 L 767.523438 494.480469 C 782.984375 479.714844 798.972656 464.449219 824.152344 460.621094 C 825.433594 460.425781 826.765625 460.253906 828.105469 460.128906 C 842.28125 458.785156 857.34375 461.339844 871.90625 463.820312 C 878.507812 464.941406 885.332031 466.101562 891.992188 466.882812 C 909.09375 468.921875 921.804688 467.917969 933.203125 463.625 C 953.242188 456.070312 968.335938 439.921875 971.65625 422.464844 C 973.351562 413.351562 972.183594 403.84375 968.167969 394.203125 C 966.234375 389.5625 963.375 385.292969 960.605469 381.167969 C 959.011719 378.792969 957.363281 376.332031 955.921875 373.847656 C 954.300781 371.054688 952.707031 368.109375 951.152344 365.265625 C 946.910156 357.476562 942.511719 349.414062 936.726562 342.226562 C 911.214844 310.664062 870.597656 285.578125 830.710938 276.761719 C 828.167969 276.210938 825.621094 275.683594 822.9375 275.207031 C 802.765625 271.566406 783.902344 271.234375 765.722656 270.914062 C 751.941406 270.667969 737.71875 270.414062 723.1875 268.699219 C 693.960938 265.246094 659.328125 254.773438 620.230469 237.570312 L 615.265625 235.371094 C 588.457031 223.449219 563.753906 213.535156 541.882812 213.535156 Z M 541.882812 213.535156 " fill-opacity="1" fill-rule="nonzero"/><path fill="#c9c5e3" d="M 690.492188 505.523438 C 682.335938 505.523438 674.511719 503.402344 667.636719 498.019531 C 655.976562 498.019531 643.238281 497.28125 629.109375 492.351562 C 622.4375 490 616.117188 486.921875 610.148438 483.125 C 602.144531 478.152344 595.109375 472.058594 589.050781 464.839844 C 577.238281 450.625 570.8125 430.890625 573.429688 416.839844 C 575.015625 408.214844 579.046875 402.597656 582.347656 398.09375 C 582.667969 391.601562 581.855469 386.058594 580.242188 378.183594 C 578.214844 368.261719 570.160156 358.042969 560.835938 346.207031 C 555.742188 339.730469 550.457031 333.027344 545.558594 325.652344 C 538.53125 315.027344 534.078125 304.105469 532.675781 294.054688 C 529.644531 272.375 535.492188 253.421875 548.308594 243.359375 L 548.960938 244.207031 L 548.308594 243.359375 C 571.628906 225.050781 607.230469 236.128906 631.984375 246.046875 L 636.09375 247.746094 L 646.511719 251.988281 C 670.71875 261.925781 695.734375 272.195312 717.902344 278.203125 C 730.480469 281.597656 742.316406 283.90625 754.851562 286.324219 C 768.03125 288.871094 781.660156 291.5 796.4375 295.582031 C 798.625 296.1875 800.679688 296.773438 802.707031 297.375 C 837.0625 307.652344 869.808594 326.628906 892.546875 349.449219 C 897.542969 354.464844 901.644531 360.082031 905.605469 365.511719 C 907.550781 368.1875 909.390625 370.707031 911.316406 373.148438 C 912.886719 375.136719 914.652344 377.105469 916.351562 379.015625 C 919.660156 382.730469 923.089844 386.566406 925.625 391.003906 C 930.828125 400.070312 932.90625 409.25 931.820312 418.296875 C 929.707031 435.363281 915.457031 451.183594 895.515625 458.601562 C 886.019531 462.132812 875.265625 463.242188 861.65625 462.089844 C 855.027344 461.535156 848.261719 460.527344 841.726562 459.542969 C 831.390625 458.007812 820.707031 456.417969 810.710938 456.691406 C 809.667969 456.691406 808.628906 456.777344 807.636719 456.84375 C 786.640625 458.328125 772.207031 467.808594 759.460938 476.167969 C 756.277344 478.253906 752.738281 480.410156 748.996094 482.667969 L 748.445312 483 C 734.316406 491.621094 711.351562 505.523438 690.492188 505.523438 Z M 579.960938 235.652344 C 568.929688 235.652344 558.347656 238.199219 549.648438 244.988281 C 537.4375 254.578125 531.886719 272.796875 534.804688 293.726562 C 536.164062 303.460938 540.507812 314.09375 547.367188 324.4375 C 552.1875 331.746094 557.441406 338.40625 562.523438 344.855469 C 572.011719 356.898438 580.207031 367.304688 582.339844 377.714844 C 584.035156 385.886719 584.886719 391.617188 584.460938 398.480469 L 584.460938 398.796875 L 584.273438 399.050781 C 581.066406 403.429688 577.078125 408.871094 575.550781 417.179688 C 573.082031 430.433594 579.460938 449.894531 590.722656 463.4375 C 596.636719 470.46875 603.492188 476.410156 611.292969 481.257812 C 617.113281 484.992188 623.277344 488.019531 629.785156 490.347656 C 643.765625 495.21875 656.410156 495.898438 667.976562 495.898438 L 668.347656 495.898438 L 668.636719 496.128906 C 689.105469 512.523438 718.582031 498.671875 747.375 481.199219 L 747.917969 480.878906 C 751.652344 478.613281 755.175781 476.480469 758.324219 474.410156 C 771.28125 465.925781 785.964844 456.265625 807.542969 454.746094 C 808.570312 454.671875 809.632812 454.621094 810.710938 454.585938 C 820.894531 454.304688 831.671875 455.910156 842.109375 457.464844 C 848.609375 458.429688 855.339844 459.421875 861.902344 460.007812 C 875.191406 461.128906 885.664062 460.058594 894.84375 456.613281 C 914.058594 449.46875 927.773438 434.328125 929.785156 418.042969 C 930.8125 409.464844 928.816406 400.722656 923.84375 392.066406 C 921.417969 387.824219 918.0625 384.0625 914.832031 380.421875 C 913.132812 378.496094 911.324219 376.492188 909.738281 374.484375 C 907.785156 372.003906 905.851562 369.390625 903.976562 366.785156 C 900.0625 361.414062 896.007812 355.863281 891.128906 350.957031 C 868.628906 328.382812 836.210938 309.601562 802.179688 299.429688 C 800.167969 298.824219 798.132812 298.25 795.953125 297.644531 C 781.238281 293.582031 767.648438 290.957031 754.503906 288.421875 C 741.9375 285.992188 730.054688 283.703125 717.402344 280.273438 C 695.125 274.230469 670.039062 263.929688 645.765625 253.964844 L 635.355469 249.722656 L 631.253906 248.066406 C 616.351562 242.058594 597.539062 235.652344 579.960938 235.652344 Z M 579.960938 235.652344 " fill-opacity="1" fill-rule="nonzero"/><path fill="#c9c5e3" d="M 647.609375 478.136719 C 645.0625 478.136719 642.421875 478.007812 639.773438 477.746094 C 632.949219 477.050781 626.386719 475.351562 620.078125 472.652344 C 616.085938 470.992188 612.316406 468.921875 608.773438 466.441406 C 605.234375 463.957031 602 461.125 599.074219 457.9375 C 587.558594 445.257812 583.144531 426.097656 588.796875 413.375 C 591.519531 407.222656 596.171875 403.464844 600.679688 399.796875 C 602.042969 398.695312 603.335938 397.652344 604.554688 396.554688 C 609.460938 392.152344 612.558594 387.09375 614.585938 380.167969 C 618.195312 367.835938 608.554688 355.132812 598.351562 341.691406 C 596.851562 339.703125 595.324219 337.703125 593.820312 335.664062 C 587.109375 326.601562 582.550781 318.554688 580.242188 311.75 C 574.464844 294.453125 575.710938 278.652344 583.636719 268.28125 C 597.707031 250.046875 626.070312 251.308594 647.847656 258.652344 C 648.941406 259.015625 650.027344 259.398438 651.113281 259.789062 C 670.234375 266.644531 688.496094 276.691406 704.578125 285.5625 C 707.242188 287.027344 709.863281 288.472656 712.4375 289.863281 C 733.898438 301.542969 750.472656 309.707031 769.652344 318.054688 C 771.195312 318.726562 772.75 319.398438 774.328125 320.066406 C 797.996094 330.25 825.070312 342.351562 846.710938 357.949219 C 851.125 361.246094 855.339844 364.78125 859.355469 368.558594 C 861.246094 370.257812 863.039062 371.894531 864.871094 373.472656 C 866.117188 374.542969 867.417969 375.609375 868.699219 376.679688 C 873.085938 380.296875 877.617188 384.03125 881.148438 388.5625 C 887.375 396.625 890.332031 405.066406 889.929688 413.671875 C 889.082031 431.867188 872.8125 445.804688 857.113281 451.53125 C 849.773438 454.214844 841.449219 455.390625 831.65625 455.121094 C 823.765625 454.773438 815.914062 454.015625 808.105469 452.847656 C 802.910156 452.160156 798.003906 451.515625 793.125 451.148438 C 792.355469 451.082031 791.574219 451.03125 790.800781 450.980469 C 777.429688 449.960938 764.289062 451.261719 751.382812 454.890625 C 748.671875 455.628906 745.441406 456.589844 742.097656 457.699219 C 737.328125 459.332031 732.457031 461.289062 727.304688 463.359375 C 710.765625 470.007812 693.671875 476.871094 679.425781 472.992188 C 668.113281 476.074219 658.011719 478.136719 647.609375 478.136719 Z M 618.847656 255.789062 C 605.609375 255.789062 593.132812 259.558594 585.359375 269.640625 C 577.832031 279.398438 576.703125 294.523438 582.253906 311.140625 C 584.460938 317.726562 588.914062 325.566406 595.5 334.46875 C 597 336.488281 598.503906 338.484375 600.015625 340.460938 C 610.554688 354.351562 620.511719 367.464844 616.597656 380.820312 C 614.453125 388.152344 611.167969 393.550781 605.949219 398.195312 C 604.683594 399.332031 603.308594 400.433594 601.984375 401.503906 C 597.691406 404.972656 593.242188 408.5625 590.730469 414.234375 C 585.394531 426.242188 589.652344 444.417969 600.636719 456.511719 C 603.457031 459.585938 606.578125 462.316406 609.996094 464.710938 C 613.414062 467.101562 617.050781 469.101562 620.902344 470.703125 C 627.007812 473.300781 633.367188 474.929688 639.96875 475.589844 C 653.046875 476.921875 665.109375 474.65625 679.1875 470.855469 L 679.476562 470.777344 L 679.753906 470.855469 C 693.332031 474.707031 710.230469 467.925781 726.542969 461.375 C 731.726562 459.296875 736.625 457.328125 741.445312 455.671875 C 744.839844 454.5 748.113281 453.578125 750.855469 452.828125 C 763.992188 449.136719 777.363281 447.808594 790.96875 448.839844 C 791.75 448.890625 792.550781 448.953125 793.339844 449.019531 C 798.269531 449.433594 803.429688 450.113281 808.410156 450.765625 C 816.148438 451.933594 823.929688 452.683594 831.75 453.023438 C 841.269531 453.289062 849.359375 452.175781 856.445312 449.570312 C 871.480469 444.082031 886.996094 430.824219 887.84375 413.597656 C 888.21875 405.507812 885.40625 397.53125 879.492188 389.886719 C 876.097656 385.496094 871.667969 381.839844 867.375 378.292969 C 866.066406 377.214844 864.769531 376.144531 863.511719 375.066406 C 861.65625 373.472656 859.777344 371.765625 857.960938 370.121094 C 854.003906 366.398438 849.847656 362.910156 845.496094 359.65625 C 824.023438 344.1875 797.125 332.109375 773.523438 322.003906 L 768.835938 319.980469 C 749.589844 311.605469 732.964844 303.417969 711.445312 291.714844 C 708.875 290.316406 706.253906 288.878906 703.578125 287.402344 C 687.539062 278.570312 669.359375 268.570312 650.402344 261.765625 C 649.324219 261.382812 648.253906 261.011719 647.167969 260.644531 C 637.984375 257.527344 628.542969 255.90625 618.847656 255.789062 Z M 618.847656 255.789062 " fill-opacity="1" fill-rule="nonzero"/><path fill="#c9c5e3" d="M 642.820312 463.539062 C 629.472656 463.539062 617.226562 459.066406 609.0625 450.996094 C 597.757812 439.820312 595.570312 421.378906 604.183594 409.886719 C 609.613281 402.640625 618.269531 398.695312 626.671875 395.273438 L 627.476562 394.945312 C 635.335938 391.753906 643.457031 388.453125 649.066406 382.28125 C 662.332031 367.703125 648.898438 353.128906 637.042969 340.265625 C 633.777344 336.878906 630.726562 333.3125 627.886719 329.5625 C 622.71875 322.316406 614.699219 307.980469 619.027344 293.402344 C 624.355469 275.417969 646.4375 267.441406 663.707031 271.277344 C 682.886719 275.523438 697.652344 290.679688 707.140625 301.703125 C 710.035156 305.097656 712.886719 308.585938 715.628906 311.980469 C 723.902344 322.164062 732.457031 332.679688 743.003906 340.636719 C 756.53125 350.820312 772.960938 356.617188 788.832031 362.195312 C 798.675781 365.648438 808.859375 369.222656 818.355469 373.828125 C 829.160156 379.074219 847.386719 390.640625 848.058594 409.148438 C 848.6875 426.121094 833.292969 439.4375 818.730469 444.589844 C 813.207031 446.535156 807.53125 447.761719 801.699219 448.273438 L 801.605469 447.210938 L 801.699219 448.273438 C 792.757812 449.058594 783.988281 448.160156 775.390625 445.582031 C 770.460938 443.96875 765.632812 442.089844 760.910156 439.945312 C 752.789062 436.460938 744.398438 432.859375 735.585938 432.351562 C 721.042969 431.503906 707.515625 438.953125 694.4375 446.152344 L 691.464844 447.78125 C 678.972656 454.570312 665.363281 461.171875 650.433594 463.054688 C 647.90625 463.371094 645.371094 463.53125 642.820312 463.539062 Z M 654.832031 272.449219 C 640.402344 272.449219 625.230469 279.953125 621.054688 294.003906 C 616.988281 307.726562 624.667969 321.398438 629.609375 328.332031 C 632.40625 332.003906 635.402344 335.503906 638.605469 338.832031 C 650.484375 351.6875 665.210938 367.683594 650.636719 383.714844 C 644.699219 390.234375 636.355469 393.628906 628.277344 396.914062 L 627.425781 397.242188 C 619.304688 400.542969 610.9375 404.347656 605.839844 411.160156 C 597.84375 421.835938 599.898438 439.03125 610.515625 449.484375 C 619.789062 458.617188 634.597656 462.910156 650.15625 460.960938 C 664.726562 459.125 678.160156 452.660156 690.429688 445.929688 L 693.394531 444.308594 C 706.742188 436.96875 720.550781 429.375 735.691406 430.246094 C 744.878906 430.78125 753.441406 434.492188 761.734375 438.011719 C 766.417969 440.121094 771.199219 441.96875 776.085938 443.554688 C 784.40625 446.042969 792.890625 446.910156 801.542969 446.160156 C 807.199219 445.667969 812.699219 444.476562 818.050781 442.585938 C 831.910156 437.691406 846.546875 425.15625 845.960938 409.226562 C 845.300781 391.175781 825.800781 379.796875 817.449219 375.738281 C 808.0625 371.179688 797.929688 367.625 788.144531 364.195312 C 772.097656 358.570312 755.503906 352.75 741.714844 342.328125 C 730.960938 334.214844 722.324219 323.589844 713.972656 313.320312 C 711.214844 309.925781 708.371094 306.4375 705.484375 303.085938 C 696.226562 292.289062 681.722656 277.464844 663.207031 273.382812 C 660.449219 272.769531 657.65625 272.457031 654.832031 272.449219 Z M 654.832031 272.449219 " fill-opacity="1" fill-rule="nonzero"/></svg>