<svg xmlns="http://www.w3.org/2000/svg" xmlns:xlink="http://www.w3.org/1999/xlink" width="1920" zoomAndPan="magnify" viewBox="0 0 1440 809.999993" height="1080" preserveAspectRatio="xMidYMid meet" version="1.0"><defs><clipPath id="3065a9394e"><path d="M 387 47 L 1066.84375 47 L 1066.84375 794.820312 L 387 794.820312 Z M 387 47 " clip-rule="nonzero"/></clipPath><clipPath id="bfecd4df86"><path d="M 549 14.820312 L 1006 14.820312 L 1006 759 L 549 759 Z M 549 14.820312 " clip-rule="nonzero"/></clipPath></defs><g clip-path="url(#3065a9394e)"><path fill="#c9c5e3" d="M 393.066406 795.148438 C 373.179688 740.664062 407.171875 681.796875 449.269531 654.0625 C 488.167969 628.429688 539.550781 617.695312 606.351562 621.257812 C 628.269531 622.425781 650.480469 624.886719 671.949219 627.261719 C 703.535156 630.753906 736.167969 634.367188 768.441406 633.917969 C 812.964844 633.28125 874.949219 623.613281 917.40625 581.191406 C 954.273438 544.375 970.066406 485.265625 957.644531 430.609375 C 946.167969 380.085938 912.074219 333.292969 864.074219 302.207031 C 846.683594 290.9375 827.640625 281.734375 809.214844 272.820312 C 785.800781 261.503906 761.578125 249.785156 740.554688 233.753906 C 702.777344 204.953125 675.183594 153.226562 695.550781 110.042969 C 711 77.304688 748.316406 58.261719 809.59375 51.847656 C 895.746094 42.8125 982.382812 47.542969 1067.039062 65.882812 L 1066.679688 67.570312 C 982.191406 49.265625 895.746094 44.550781 809.78125 53.550781 C 749.140625 59.898438 712.289062 78.632812 697.117188 110.765625 C 677.128906 153.105469 704.378906 203.992188 741.605469 232.378906 C 762.488281 248.289062 786.625 259.972656 809.972656 271.257812 C 828.449219 280.183594 847.542969 289.421875 865.023438 300.742188 C 913.378906 332.070312 947.753906 379.257812 959.332031 430.199219 C 971.871094 485.421875 955.890625 545.148438 918.628906 582.378906 C 875.757812 625.195312 813.308594 634.96875 768.460938 635.605469 C 736.101562 636.070312 703.378906 632.441406 671.761719 628.945312 C 650.308594 626.574219 628.148438 624.113281 606.265625 622.941406 C 539.84375 619.417969 488.804688 630.046875 450.214844 655.476562 C 408.671875 682.84375 375.089844 740.871094 394.683594 794.527344 Z M 393.066406 795.148438 " fill-opacity="1" fill-rule="nonzero"/></g><path fill="#c9c5e3" d="M 409.496094 792.808594 C 392.101562 740.648438 424.480469 683.359375 463.789062 655.9375 C 500.277344 630.53125 548.136719 618.882812 610.15625 620.3125 C 620.355469 620.535156 631.210938 621.085938 644.320312 622.03125 C 653.421875 622.683594 662.660156 623.460938 671.585938 624.199219 C 700.4375 626.609375 730.285156 629.101562 759.71875 627.847656 C 800.835938 626.109375 857.984375 615.390625 896.660156 574.273438 C 912.125 557.847656 923.789062 536.738281 930.375 513.21875 C 938.085938 485.78125 938.804688 456.5 932.457031 428.5625 C 921.378906 379.792969 889.398438 334.117188 844.722656 303.273438 C 828.601562 292.105469 811.039062 282.902344 794.039062 274.007812 C 781.328125 267.335938 768.167969 260.453125 755.847656 252.847656 C 746.492188 247.070312 738.421875 241.425781 731.230469 235.558594 C 696.824219 207.605469 672.65625 158.214844 693.007812 117.921875 C 708.539062 87.09375 745.890625 68.671875 804 63.164062 C 835.261719 60.207031 867.171875 59.414062 898.035156 58.660156 L 901.527344 58.570312 C 928.175781 57.917969 956.507812 57.316406 984.207031 57.816406 C 1012.179688 58.332031 1037.964844 59.914062 1063.046875 62.648438 L 1062.859375 64.351562 C 1037.828125 61.617188 1012.09375 60.035156 984.171875 59.535156 C 956.507812 59.019531 928.191406 59.621094 901.5625 60.292969 L 898.070312 60.378906 C 867.242188 61.136719 835.347656 61.910156 804.15625 64.886719 C 746.664062 70.339844 709.777344 88.4375 694.519531 118.699219 C 674.582031 158.179688 698.441406 206.691406 732.296875 234.21875 C 739.4375 240.015625 747.4375 245.640625 756.746094 251.371094 C 769.011719 258.957031 782.136719 265.820312 794.832031 272.476562 C 811.863281 281.40625 829.480469 290.628906 845.683594 301.84375 C 890.707031 332.949219 922.945312 378.984375 934.128906 428.167969 C 940.542969 456.398438 939.820312 485.96875 932.027344 513.683594 C 925.355469 537.460938 913.550781 558.808594 897.898438 575.445312 C 858.828125 616.972656 801.230469 627.792969 759.789062 629.550781 C 730.25 630.804688 700.351562 628.3125 671.449219 625.902344 C 662.523438 625.164062 653.300781 624.386719 644.199219 623.734375 C 631.125 622.804688 620.289062 622.253906 610.121094 622.015625 C 548.515625 620.605469 500.949219 632.148438 464.769531 657.332031 C 425.976562 684.394531 393.996094 740.871094 411.113281 792.242188 Z M 409.496094 792.808594 " fill-opacity="1" fill-rule="nonzero"/><path fill="#c9c5e3" d="M 425.925781 790.453125 C 410.835938 740.0625 440.875 685.582031 478.324219 657.8125 C 512.386719 632.644531 556.773438 620.070312 613.972656 619.363281 C 623.46875 619.246094 633.449219 619.398438 645.386719 619.863281 C 653.988281 620.191406 662.710938 620.636719 671.140625 621.066406 C 697.324219 622.410156 724.382812 623.785156 751.03125 621.757812 C 788.742188 618.902344 841.039062 607.132812 875.929688 567.34375 C 889.984375 551.324219 900.476562 530.886719 906.273438 508.25 C 913.070312 481.773438 913.414062 453.507812 907.273438 426.5 C 896.574219 379.480469 866.726562 334.941406 825.351562 304.304688 C 810.539062 293.277344 794.503906 284.105469 779.003906 275.246094 C 767.339844 268.574219 755.300781 261.675781 744.101562 254.15625 C 735.617188 248.480469 728.359375 242.972656 721.890625 237.3125 C 691.851562 211.027344 669.195312 164.90625 690.425781 125.769531 C 706.253906 96.503906 742.570312 79.234375 798.394531 74.484375 C 818.28125 72.78125 838.613281 72.09375 858.277344 71.40625 C 871.746094 70.941406 885.683594 70.460938 899.238281 69.667969 C 918.730469 68.515625 937.707031 66.882812 956.0625 65.316406 C 965.023438 64.542969 973.847656 63.785156 982.519531 63.097656 C 1012.300781 60.738281 1036.605469 59.585938 1059.023438 59.433594 L 1059.039062 61.152344 C 1036.675781 61.289062 1012.402344 62.460938 982.65625 64.816406 C 973.988281 65.503906 965.179688 66.261719 956.214844 67.035156 C 937.859375 68.617188 918.867188 70.253906 899.34375 71.40625 C 885.769531 72.199219 871.816406 72.679688 858.328125 73.144531 C 838.683594 73.8125 818.382812 74.519531 798.53125 76.222656 C 743.324219 80.9375 707.457031 97.882812 691.9375 126.609375 C 671.15625 164.941406 693.46875 210.203125 723.007812 236.058594 C 729.40625 241.667969 736.617188 247.121094 745.027344 252.761719 C 756.175781 260.246094 768.203125 267.128906 779.832031 273.785156 C 795.367188 282.679688 811.449219 291.867188 826.332031 302.960938 C 868.015625 333.84375 898.101562 378.742188 908.890625 426.15625 C 915.101562 453.421875 914.738281 481.980469 907.875 508.714844 C 902.007812 531.609375 891.378906 552.289062 877.148438 568.511719 C 841.882812 608.734375 789.121094 620.621094 751.085938 623.492188 C 724.332031 625.523438 697.203125 624.148438 670.984375 622.804688 C 662.554688 622.375 653.851562 621.929688 645.25 621.601562 C 633.34375 621.136719 623.402344 620.980469 613.921875 621.101562 C 557.082031 621.808594 513.042969 634.261719 479.273438 659.226562 C 442.300781 686.648438 412.644531 740.371094 427.507812 789.988281 Z M 425.925781 790.453125 " fill-opacity="1" fill-rule="nonzero"/><path fill="#c9c5e3" d="M 442.355469 788.09375 C 429.761719 740.046875 458.214844 687.113281 492.847656 659.671875 C 524.484375 634.746094 565.339844 621.238281 617.777344 618.402344 C 626.378906 617.917969 635.753906 617.695312 646.4375 617.679688 C 654.488281 617.660156 662.640625 617.765625 670.539062 617.851562 C 694.074219 618.125 718.414062 618.417969 742.328125 615.648438 C 776.632812 611.675781 824.0625 598.859375 855.199219 560.410156 C 867.84375 544.804688 877.167969 525.054688 882.191406 503.277344 C 888.074219 477.765625 888.058594 450.496094 882.121094 424.453125 C 871.816406 379.222656 844.085938 335.804688 806.03125 305.351562 C 792.578125 294.515625 778.144531 285.433594 764.191406 276.625 C 753.046875 269.605469 742.515625 262.964844 732.402344 255.480469 C 724.816406 249.90625 718.347656 244.539062 712.617188 239.085938 C 685.902344 213.625 666.789062 169.773438 687.929688 133.613281 C 704.03125 105.949219 739.335938 89.847656 792.855469 85.789062 C 809.042969 84.566406 825.589844 84.050781 841.609375 83.550781 C 859.894531 82.984375 878.785156 82.398438 897.035156 80.746094 C 926.953125 78.027344 955.613281 72.886719 980.902344 68.359375 L 981.144531 68.328125 C 1006.898438 63.714844 1031.207031 59.363281 1055.066406 56.214844 L 1055.289062 57.917969 C 1031.480469 61.050781 1007.171875 65.402344 981.453125 70.011719 L 981.210938 70.046875 C 955.890625 74.589844 927.175781 79.730469 897.191406 82.449219 C 878.886719 84.117188 859.964844 84.703125 841.660156 85.273438 C 825.660156 85.769531 809.128906 86.269531 792.992188 87.507812 C 740.074219 91.535156 705.238281 107.34375 689.425781 134.492188 C 668.75 169.84375 687.570312 212.851562 713.804688 237.847656 C 719.480469 243.25 725.898438 248.566406 733.417969 254.105469 C 743.496094 261.554688 753.992188 268.160156 765.105469 275.179688 C 779.109375 284.003906 793.578125 293.121094 807.097656 304.011719 C 845.445312 334.703125 873.398438 378.46875 883.789062 424.074219 C 889.777344 450.378906 889.8125 477.902344 883.859375 503.671875 C 878.785156 525.710938 869.339844 545.699219 856.539062 561.511719 C 825.042969 600.40625 777.164062 613.359375 742.535156 617.386719 C 718.519531 620.171875 694.125 619.882812 670.539062 619.605469 C 662.660156 619.519531 654.503906 619.398438 646.472656 619.433594 C 635.820312 619.449219 626.480469 619.675781 617.914062 620.15625 C 565.855469 622.976562 525.308594 636.363281 493.964844 661.066406 C 459.78125 688.160156 431.652344 740.355469 444.074219 787.699219 Z M 442.355469 788.09375 " fill-opacity="1" fill-rule="nonzero"/><path fill="#c9c5e3" d="M 458.785156 785.738281 C 448.632812 740.011719 475.539062 688.644531 507.367188 661.546875 C 536.558594 636.878906 573.90625 622.460938 621.5625 617.457031 C 629.421875 616.628906 637.886719 615.992188 647.453125 615.511719 C 654.902344 615.132812 662.4375 614.859375 669.710938 614.601562 C 690.667969 613.859375 712.34375 613.085938 733.570312 609.558594 C 764.453125 604.449219 807.011719 590.566406 834.398438 553.476562 C 845.632812 538.285156 853.789062 519.207031 858.019531 498.289062 C 862.992188 473.738281 862.597656 447.488281 856.882812 422.371094 C 847.027344 379.105469 821.410156 336.835938 786.609375 306.367188 C 774.617188 295.875 761.90625 286.929688 749.605469 278.292969 C 739.386719 271.117188 729.753906 264.339844 720.582031 256.789062 C 713.890625 251.316406 708.195312 246.089844 703.226562 240.839844 C 679.089844 215.398438 664.191406 174.796875 685.332031 141.457031 C 705.738281 109.0625 751.996094 99.445312 787.210938 97.089844 C 801.59375 96.128906 816.335938 95.765625 830.582031 95.421875 C 851.792969 94.90625 873.710938 94.371094 894.730469 91.828125 C 925.75 88.058594 954.839844 80.507812 979.199219 73.625 C 989.695312 70.667969 999.828125 67.671875 1009.632812 64.800781 C 1023.929688 60.585938 1037.449219 56.628906 1051.007812 53 L 1051.453125 54.667969 C 1037.914062 58.28125 1024.425781 62.253906 1010.132812 66.453125 C 1000.324219 69.339844 990.191406 72.316406 979.679688 75.277344 C 955.253906 82.175781 926.09375 89.746094 894.957031 93.53125 C 873.863281 96.09375 851.878906 96.625 830.632812 97.140625 C 816.40625 97.484375 801.695312 97.847656 787.347656 98.8125 C 752.53125 101.148438 706.835938 110.59375 686.8125 142.386719 C 666.167969 174.953125 680.824219 214.710938 704.496094 239.671875 C 709.433594 244.867188 715.0625 250.042969 721.699219 255.480469 C 730.800781 262.980469 740.433594 269.742188 750.621094 276.898438 C 762.953125 285.570312 775.703125 294.53125 787.761719 305.09375 C 822.839844 335.785156 848.644531 378.398438 858.585938 422.007812 C 864.367188 447.367188 864.761719 473.859375 859.742188 498.648438 C 855.472656 519.808594 847.199219 539.128906 835.828125 554.507812 C 813.875 584.234375 778.625 603.847656 733.882812 611.261719 C 712.53125 614.804688 690.804688 615.582031 669.796875 616.320312 C 662.523438 616.578125 655.003906 616.851562 647.570312 617.230469 C 638.042969 617.695312 629.59375 618.332031 621.765625 619.160156 C 574.476562 624.128906 537.417969 638.410156 508.5 662.855469 C 477.070312 689.625 450.472656 740.304688 460.488281 785.359375 Z M 458.785156 785.738281 " fill-opacity="1" fill-rule="nonzero"/><path fill="#c9c5e3" d="M 475.210938 783.363281 C 468.261719 744.3125 487.460938 694.972656 521.902344 663.40625 C 548.464844 639.046875 582.304688 623.71875 625.363281 616.492188 C 632.433594 615.289062 640.003906 614.253906 648.5 613.328125 C 655.277344 612.570312 662.125 611.914062 668.730469 611.296875 C 688.015625 609.457031 706.234375 607.71875 724.867188 603.46875 C 764.796875 594.367188 794.675781 575.222656 813.6875 546.5625 C 823.511719 531.800781 830.511719 513.375 833.933594 493.316406 C 837.996094 469.714844 837.238281 444.476562 831.714844 420.304688 C 822.289062 378.949219 798.789062 337.78125 767.253906 307.402344 C 756.710938 297.234375 745.683594 288.476562 735.015625 279.996094 C 725.761719 272.648438 717.023438 265.699219 708.867188 258.113281 C 702.898438 252.554688 698.148438 247.636719 693.917969 242.613281 C 673.273438 218.0625 661.832031 179.683594 682.804688 149.320312 C 703.535156 119.042969 747.988281 110.355469 781.621094 108.410156 C 794.953125 107.636719 808.613281 107.414062 821.824219 107.1875 C 845.21875 106.792969 869.425781 106.398438 892.460938 102.921875 C 926.28125 97.832031 955.683594 87.421875 977.53125 78.90625 C 993.445312 72.714844 1008.171875 66.382812 1022.398438 60.242188 C 1030.859375 56.59375 1038.859375 53.152344 1046.964844 49.796875 L 1047.617188 51.382812 C 1039.515625 54.734375 1031.53125 58.175781 1023.066406 61.824219 C 1008.824219 67.964844 994.082031 74.296875 978.132812 80.507812 C 956.199219 89.039062 926.679688 99.5 892.703125 104.609375 C 869.546875 108.101562 845.289062 108.496094 821.839844 108.890625 C 808.644531 109.117188 795.003906 109.339844 781.707031 110.113281 C 748.453125 112.039062 704.53125 120.574219 684.199219 150.28125 C 663.742188 179.90625 674.976562 217.445312 695.207031 241.496094 C 699.386719 246.464844 704.085938 251.335938 710.003906 256.839844 C 718.121094 264.390625 726.828125 271.308594 736.066406 278.636719 C 746.765625 287.136719 757.828125 295.925781 768.441406 306.144531 C 800.199219 336.765625 823.871094 378.226562 833.382812 419.910156 C 838.941406 444.304688 839.714844 469.78125 835.621094 493.589844 C 832.144531 513.890625 825.058594 532.523438 815.113281 547.488281 C 795.847656 576.527344 765.621094 595.917969 725.246094 605.121094 C 706.511719 609.402344 688.242188 611.140625 668.886719 612.984375 C 662.28125 613.617188 655.449219 614.253906 648.691406 615.011719 C 640.226562 615.941406 632.691406 616.972656 625.65625 618.160156 C 582.9375 625.316406 549.375 640.523438 523.070312 664.644531 C 489.042969 695.832031 470.070312 744.519531 476.914062 783.035156 Z M 475.210938 783.363281 " fill-opacity="1" fill-rule="nonzero"/><path fill="#c9c5e3" d="M 491.640625 781.007812 C 486.839844 744.003906 505.25 696.417969 536.421875 665.296875 C 560.453125 641.300781 590.785156 625.042969 629.128906 615.582031 C 635.410156 614.015625 642.085938 612.585938 649.515625 611.195312 C 655.539062 610.058594 661.59375 609.007812 667.441406 608.011719 C 684.199219 605.136719 700.007812 602.417969 716.128906 597.414062 C 751.03125 586.609375 776.871094 567.171875 792.941406 539.664062 C 801.335938 525.316406 807.167969 507.578125 809.832031 488.363281 C 812.980469 465.722656 811.847656 441.484375 806.546875 418.257812 C 797.550781 378.863281 776.167969 338.832031 747.902344 308.433594 C 738.972656 298.832031 729.769531 290.4375 720.875 282.316406 C 712.394531 274.59375 704.394531 267.28125 697.117188 259.421875 C 692.058594 253.949219 688.070312 249.167969 684.59375 244.351562 C 668.765625 222.484375 658.152344 186.546875 680.277344 157.148438 C 701.4375 129.054688 744.03125 121.277344 776.046875 119.695312 C 788.707031 119.078125 801.660156 118.957031 814.203125 118.835938 C 839.441406 118.613281 865.539062 118.371094 890.222656 113.984375 C 917.785156 109.082031 945 99.601562 975.898438 84.171875 C 994.785156 74.742188 1011.609375 64.902344 1027.867188 55.390625 C 1032.941406 52.414062 1037.984375 49.472656 1042.988281 46.597656 L 1043.851562 48.09375 C 1038.84375 50.96875 1033.820312 53.910156 1028.746094 56.886719 C 1012.453125 66.417969 995.613281 76.273438 976.671875 85.71875 C 945.617188 101.21875 918.25 110.75 890.535156 115.6875 C 865.691406 120.109375 839.527344 120.347656 814.21875 120.574219 C 801.695312 120.691406 788.757812 120.796875 776.132812 121.433594 C 744.496094 123 702.417969 130.636719 681.652344 158.195312 C 660.078125 186.839844 670.503906 221.96875 685.988281 243.351562 C 689.425781 248.101562 693.351562 252.832031 698.375 258.25 C 705.597656 266.0625 713.582031 273.339844 722.027344 281.046875 C 730.957031 289.183594 740.175781 297.59375 749.15625 307.261719 C 777.628906 337.867188 799.167969 378.191406 808.214844 417.878906 C 813.566406 441.3125 814.71875 465.757812 811.535156 488.601562 C 808.851562 508.023438 802.933594 525.984375 794.4375 540.523438 C 778.164062 568.410156 751.980469 588.105469 716.644531 599.046875 C 700.421875 604.070312 684.542969 606.804688 667.734375 609.695312 C 661.886719 610.695312 655.847656 611.742188 649.84375 612.878906 C 642.445312 614.253906 635.824219 615.683594 629.558594 617.230469 C 591.523438 626.625 561.453125 642.726562 537.660156 666.5 C 506.847656 697.277344 488.632812 744.261719 493.378906 780.785156 Z M 491.640625 781.007812 " fill-opacity="1" fill-rule="nonzero"/><path fill="#c9c5e3" d="M 508.085938 778.632812 C 504.941406 737.601562 527.339844 693.097656 550.941406 667.171875 C 572.394531 643.605469 599.214844 626.417969 632.898438 614.632812 C 638.230469 612.757812 643.820312 610.96875 650.515625 609.027344 C 655.433594 607.597656 660.320312 606.257812 665.152344 604.949219 C 679.707031 600.957031 693.453125 597.207031 707.371094 591.339844 C 737.234375 578.800781 759.050781 559.085938 772.191406 532.761719 C 779.261719 518.621094 783.820312 502.019531 785.714844 483.40625 C 787.949219 461.730469 786.453125 438.488281 781.363281 416.210938 C 772.707031 378.328125 753.941406 340.414062 728.53125 309.464844 C 721.339844 300.707031 714.0625 292.914062 707.027344 285.398438 C 699.199219 277.019531 691.800781 269.105469 685.351562 260.726562 C 681.203125 255.34375 677.988281 250.699219 675.253906 246.105469 C 662.125 224.136719 655.898438 191.3125 677.746094 165.027344 C 699.234375 139.167969 740.023438 132.269531 770.457031 131.050781 C 782.617188 130.550781 795.074219 130.550781 807.117188 130.535156 C 834.003906 130.5 861.820312 130.464844 887.972656 125.113281 C 916.441406 119.300781 944.65625 107.652344 974.246094 89.519531 C 994.804688 76.929688 1012.4375 63.5625 1029.503906 50.640625 C 1032.683594 48.234375 1035.832031 45.839844 1038.980469 43.484375 L 1040.011719 44.859375 C 1036.863281 47.234375 1033.71875 49.609375 1030.535156 52.019531 C 1013.433594 64.953125 995.765625 78.339844 975.140625 90.984375 C 945.378906 109.234375 916.976562 120.953125 888.316406 126.800781 C 861.992188 132.183594 834.089844 132.21875 807.117188 132.253906 C 795.089844 132.269531 782.652344 132.289062 770.523438 132.769531 C 740.433594 133.992188 700.144531 140.769531 679.070312 166.128906 C 657.808594 191.726562 663.914062 223.773438 676.730469 245.226562 C 679.433594 249.753906 682.613281 254.34375 686.710938 259.679688 C 693.109375 267.988281 700.488281 275.882812 708.28125 284.226562 C 715.335938 291.78125 722.628906 299.589844 729.855469 308.382812 C 755.4375 339.535156 774.324219 377.710938 783.046875 415.832031 C 788.175781 438.300781 789.707031 461.730469 787.433594 483.597656 C 785.523438 502.417969 780.914062 519.222656 773.742188 533.539062 C 760.410156 560.253906 738.300781 580.226562 708.042969 592.941406 C 694.019531 598.839844 680.222656 602.625 665.601562 606.617188 C 660.785156 607.941406 655.914062 609.265625 650.996094 610.695312 C 644.335938 612.621094 638.765625 614.394531 633.464844 616.269531 C 600.054688 627.964844 573.476562 644.996094 552.214844 668.34375 C 524.15625 699.152344 507.105469 743.433594 509.789062 778.511719 Z M 508.085938 778.632812 " fill-opacity="1" fill-rule="nonzero"/><path fill="#c9c5e3" d="M 524.515625 776.242188 C 523.914062 742.78125 540.359375 699.703125 565.460938 669.046875 C 584.523438 645.753906 607.144531 628.171875 636.628906 613.707031 C 641.121094 611.484375 645.835938 609.316406 651.476562 606.894531 C 655.3125 605.242188 659.097656 603.660156 662.847656 602.09375 C 675.199219 596.933594 686.863281 592.0625 698.578125 585.285156 C 723.730469 570.75 741.003906 551.308594 751.429688 525.847656 C 757.070312 512.136719 760.476562 496.171875 761.59375 478.4375 C 762.921875 457.707031 761.046875 435.480469 756.160156 414.128906 C 745.167969 366.097656 721.976562 328.5625 709.125 310.445312 C 703.828125 302.980469 698.5625 296.203125 693.46875 289.628906 C 686.125 280.167969 679.191406 271.222656 673.550781 261.964844 C 670.332031 256.703125 667.90625 252.195312 665.875 247.792969 C 661.195312 237.625 648.054688 202.152344 675.183594 172.835938 C 696.996094 149.269531 735.980469 143.230469 764.828125 142.316406 C 776.597656 141.9375 788.671875 142.027344 800.335938 142.09375 C 828.773438 142.265625 858.191406 142.457031 885.683594 136.160156 C 914.910156 129.46875 944.140625 115.53125 972.578125 94.769531 C 994.046875 79.097656 1011.800781 62.253906 1028.96875 45.960938 L 1034.972656 40.285156 L 1036.160156 41.542969 L 1030.15625 47.21875 C 1012.933594 63.542969 995.148438 80.421875 973.589844 96.160156 C 944.964844 117.0625 915.53125 131.085938 886.0625 137.84375 C 858.363281 144.191406 828.859375 144.003906 800.320312 143.832031 C 788.671875 143.761719 776.632812 143.675781 764.882812 144.054688 C 736.339844 144.949219 697.839844 150.886719 676.4375 174.023438 C 650.03125 202.5625 662.867188 237.160156 667.441406 247.085938 C 669.4375 251.421875 671.847656 255.875 675.011719 261.089844 C 680.601562 270.277344 687.519531 279.171875 694.828125 288.597656 C 699.9375 295.167969 705.21875 301.980469 710.535156 309.464844 C 723.457031 327.683594 746.785156 365.445312 757.84375 413.75 C 762.765625 435.253906 764.65625 457.652344 763.316406 478.539062 C 762.199219 496.464844 758.738281 512.601562 753.027344 526.5 C 742.464844 552.324219 724.933594 572.039062 699.457031 586.765625 C 687.636719 593.59375 675.921875 598.496094 663.519531 603.675781 C 659.785156 605.242188 656 606.808594 652.164062 608.457031 C 646.558594 610.882812 641.859375 613.035156 637.40625 615.234375 C 608.140625 629.582031 585.710938 647.027344 566.800781 670.113281 C 541.945312 700.496094 525.636719 743.125 526.253906 776.191406 Z M 524.515625 776.242188 " fill-opacity="1" fill-rule="nonzero"/><path fill="#c9c5e3" d="M 542.683594 773.953125 L 540.964844 773.867188 C 542.460938 741.988281 557.769531 701.578125 579.980469 670.941406 C 600.863281 642.125 623.230469 624.75 640.363281 612.828125 C 644.078125 610.230469 648.035156 607.613281 652.441406 604.792969 C 654.847656 603.246094 657.242188 601.75 659.578125 600.253906 C 670.074219 593.628906 679.984375 587.367188 689.789062 579.28125 C 710.019531 562.628906 723.007812 543.464844 730.679688 518.984375 C 734.863281 505.6875 737.148438 490.390625 737.476562 473.5 C 737.890625 453.714844 735.636719 432.484375 730.972656 412.101562 C 723.421875 379.171875 708.78125 343.441406 689.753906 311.476562 C 686.503906 306.023438 683.304688 300.898438 680.222656 295.941406 C 673.171875 284.640625 666.53125 273.972656 661.78125 263.238281 C 659.511719 258.097656 657.84375 253.726562 656.535156 249.511719 C 652.699219 237.160156 646.609375 205.695312 672.65625 180.699219 C 694.761719 159.46875 731.9375 154.273438 759.238281 153.65625 C 770.679688 153.398438 782.410156 153.550781 793.75 153.707031 C 823.683594 154.121094 854.648438 154.550781 883.445312 147.273438 C 913.777344 139.601562 943.210938 123.722656 970.960938 100.082031 C 992.894531 81.402344 1010.371094 61.101562 1027.265625 41.488281 L 1031.035156 37.121094 L 1032.339844 38.238281 L 1028.589844 42.609375 C 1011.644531 62.269531 994.132812 82.605469 972.09375 101.390625 C 944.15625 125.199219 914.480469 141.199219 883.894531 148.941406 C 854.871094 156.269531 823.800781 155.839844 793.75 155.445312 C 782.429688 155.289062 770.714844 155.117188 759.308594 155.390625 C 732.316406 156.011719 695.585938 161.105469 673.875 181.953125 C 648.535156 206.296875 654.488281 236.953125 658.222656 249.011719 C 659.511719 253.175781 661.144531 257.476562 663.398438 262.550781 C 668.09375 273.183594 674.410156 283.316406 681.71875 295.046875 C 684.816406 300.003906 688.015625 305.148438 691.269531 310.617188 C 710.398438 342.71875 725.105469 378.640625 732.695312 411.738281 C 737.40625 432.261719 739.660156 453.644531 739.25 473.550781 C 738.921875 490.617188 736.597656 506.082031 732.367188 519.515625 C 724.589844 544.339844 711.429688 563.765625 690.925781 580.625 C 681.050781 588.777344 671.089844 595.054688 660.542969 601.714844 C 658.203125 603.195312 655.828125 604.691406 653.402344 606.238281 C 649.015625 609.042969 645.09375 611.65625 641.378906 614.238281 C 624.347656 626.089844 602.136719 643.347656 581.410156 671.957031 C 559.355469 702.335938 544.164062 742.367188 542.683594 773.953125 Z M 542.683594 773.953125 " fill-opacity="1" fill-rule="nonzero"/><path fill="#c9c5e3" d="M 559.113281 771.683594 L 557.410156 771.476562 C 560.972656 741.679688 575.542969 702.957031 594.515625 672.832031 C 611.617188 645.6875 629.078125 627.175781 644.097656 611.96875 C 647.332031 608.683594 650.429688 605.636719 653.402344 602.710938 L 654.210938 601.921875 C 664.054688 592.269531 672.570312 583.925781 681.015625 573.3125 C 691.183594 560.5625 703.65625 542.085938 709.96875 512.101562 C 712.703125 499.25 713.855469 484.578125 713.410156 468.527344 C 712.910156 449.707031 710.296875 429.476562 705.824219 410.019531 C 698.890625 379.792969 686.96875 346.96875 670.417969 312.441406 C 669.300781 310.101562 668.179688 307.8125 667.097656 305.558594 C 659.820312 290.523438 653.542969 277.535156 650.050781 264.425781 C 648.726562 259.453125 647.832031 255.222656 647.246094 251.128906 C 644.683594 233.511719 646.574219 208.34375 670.160156 188.492188 C 692.558594 169.636719 727.945312 165.265625 753.664062 164.921875 C 764.796875 164.769531 776.199219 165.007812 787.226562 165.25 C 818.660156 165.921875 851.136719 166.609375 881.210938 158.316406 C 912.589844 149.679688 942.246094 131.839844 969.34375 105.347656 C 991.464844 83.722656 1008.394531 60.050781 1024.769531 37.152344 L 1027.078125 33.9375 L 1028.46875 34.933594 L 1026.164062 38.152344 C 1009.753906 61.101562 992.773438 84.839844 970.546875 106.570312 C 943.226562 133.285156 913.328125 151.246094 881.65625 159.96875 C 851.34375 168.3125 818.726562 167.625 787.175781 166.953125 C 776.167969 166.710938 764.777344 166.488281 753.683594 166.625 C 728.238281 166.96875 693.265625 171.269531 671.261719 189.800781 C 648.277344 209.136719 646.4375 233.683594 648.929688 250.871094 C 649.515625 254.894531 650.394531 259.058594 651.699219 263.960938 C 655.160156 276.917969 661.402344 289.835938 668.628906 304.785156 C 669.710938 307.023438 670.832031 309.328125 671.949219 311.667969 C 688.566406 346.296875 700.523438 379.257812 707.492188 409.589844 C 711.980469 429.148438 714.613281 449.5 715.128906 468.441406 C 715.59375 484.628906 714.425781 499.421875 711.65625 512.410156 C 705.253906 542.742188 692.644531 561.441406 682.355469 574.34375 C 673.839844 585.042969 665.308594 593.421875 655.417969 603.109375 L 654.609375 603.898438 C 651.648438 606.804688 648.570312 609.851562 645.335938 613.121094 C 630.367188 628.257812 612.992188 646.683594 595.980469 673.691406 C 577.105469 703.679688 562.640625 742.109375 559.113281 771.683594 Z M 559.113281 771.683594 " fill-opacity="1" fill-rule="nonzero"/><path fill="#c9c5e3" d="M 575.542969 769.410156 L 573.855469 769.066406 C 579.53125 740.921875 593.003906 704.761719 609.019531 674.726562 C 620.320312 653.511719 631.519531 636.308594 640.5 622.480469 C 643.097656 618.488281 645.542969 614.71875 647.8125 611.160156 C 650.136719 607.496094 652.304688 604.019531 654.332031 600.714844 C 661.9375 588.277344 667.285156 578.316406 672.191406 567.410156 C 679.019531 552.273438 686.382812 533.039062 689.203125 505.253906 C 690.476562 492.851562 690.511719 478.847656 689.273438 463.605469 C 687.863281 445.730469 684.867188 426.5 680.601562 407.988281 C 672.636719 373.304688 660.679688 340.242188 651.082031 313.679688 L 650.996094 313.457031 C 644.785156 296.269531 639.539062 280.804688 638.265625 265.664062 C 637.871094 260.96875 637.75 256.769531 637.886719 252.816406 C 638.730469 229.039062 648.726562 210.046875 667.597656 196.371094 C 690.269531 179.941406 723.851562 176.363281 748.023438 176.261719 C 758.824219 176.207031 769.886719 176.535156 780.605469 176.828125 C 813.53125 177.757812 847.558594 178.738281 878.90625 169.429688 C 910.851562 159.933594 941.542969 139.617188 967.671875 110.664062 C 989.796875 86.167969 1006.019531 59.15625 1021.710938 33.042969 L 1023.066406 30.773438 L 1024.546875 31.667969 L 1023.1875 33.9375 C 1007.449219 60.121094 991.171875 87.199219 968.945312 111.816406 C 942.609375 141.011719 911.625 161.5 879.386719 171.082031 C 847.785156 180.476562 813.601562 179.492188 780.535156 178.546875 C 769.851562 178.238281 758.792969 177.929688 748.023438 177.980469 C 724.09375 178.082031 690.90625 181.59375 668.59375 197.765625 C 650.167969 211.113281 640.398438 229.660156 639.589844 252.867188 C 639.453125 256.753906 639.574219 260.882812 639.96875 265.511719 C 641.222656 280.425781 646.4375 295.789062 652.613281 312.855469 L 652.699219 313.078125 C 662.316406 339.691406 674.273438 372.789062 682.269531 407.574219 C 686.539062 426.171875 689.546875 445.472656 690.976562 463.433594 C 692.214844 478.78125 692.199219 492.902344 690.90625 505.410156 C 688.070312 533.453125 680.636719 552.839844 673.753906 568.097656 C 668.816406 579.074219 663.433594 589.105469 655.796875 601.59375 C 653.765625 604.914062 651.597656 608.390625 649.257812 612.054688 C 647.003906 615.613281 644.542969 619.382812 641.945312 623.390625 C 632.964844 637.1875 621.800781 654.375 610.535156 675.515625 C 594.585938 705.449219 581.183594 741.421875 575.542969 769.410156 Z M 575.542969 769.410156 " fill-opacity="1" fill-rule="nonzero"/><path fill="#c9c5e3" d="M 591.953125 767.160156 L 590.300781 766.675781 C 598.078125 740.253906 610.5 706.585938 623.539062 676.652344 C 626.515625 669.804688 629.386719 663.300781 632.125 657.125 C 640.070312 639.148438 646.9375 623.632812 651.5625 610.386719 C 652.957031 606.375 654.230469 602.472656 655.3125 598.753906 C 658.667969 587.382812 661.09375 576.253906 663.449219 561.527344 C 666.117188 544.945312 668.902344 525.023438 668.472656 498.390625 C 668.300781 486.503906 667.183594 473.136719 665.152344 458.632812 C 662.8125 441.6875 659.441406 423.453125 655.398438 405.90625 C 651.097656 387.207031 646.160156 369.125 641.394531 351.628906 C 637.785156 338.347656 634.359375 325.808594 631.625 314.417969 C 626.703125 293.949219 625.191406 279.71875 626.550781 266.851562 C 627.015625 262.378906 627.703125 258.320312 628.613281 254.449219 C 633.707031 232.773438 645.988281 215.863281 665.101562 204.214844 C 688.035156 190.230469 719.824219 187.441406 742.449219 187.578125 C 752.890625 187.632812 763.589844 188.027344 773.949219 188.386719 C 808.386719 189.625 844.015625 190.898438 876.667969 180.527344 C 918.265625 167.3125 948.25 138.121094 966.074219 115.960938 C 988.078125 88.625 1003.507812 58.347656 1018.421875 29.050781 L 1019.164062 27.625 L 1020.695312 28.398438 L 1019.953125 29.84375 C 1004.988281 59.207031 989.523438 89.574219 967.414062 117.046875 C 949.4375 139.394531 919.195312 168.828125 877.183594 182.179688 C 844.257812 192.636719 808.492188 191.363281 773.878906 190.125 C 763.539062 189.765625 752.839844 189.367188 742.429688 189.316406 C 720.050781 189.179688 688.566406 191.933594 665.996094 205.695312 C 647.023438 217.253906 635.339844 233.339844 630.28125 254.863281 C 629.386719 258.664062 628.734375 262.65625 628.269531 267.058594 C 626.929688 279.71875 628.441406 293.777344 633.3125 314.039062 C 636.046875 325.414062 639.453125 337.9375 643.082031 351.21875 C 647.847656 368.730469 652.785156 386.84375 657.101562 405.5625 C 661.164062 423.160156 664.535156 441.449219 666.875 458.445312 C 668.902344 473 670.023438 486.453125 670.210938 498.410156 C 670.640625 525.175781 667.835938 545.183594 665.171875 561.855469 C 662.8125 576.648438 660.371094 587.847656 656.980469 599.289062 C 655.882812 603.023438 654.609375 606.960938 653.199219 611.003906 C 648.550781 624.320312 641.671875 639.871094 633.707031 657.882812 C 630.972656 664.058594 628.097656 670.5625 625.121094 677.390625 C 612.117188 707.222656 599.710938 740.804688 591.953125 767.160156 Z M 591.953125 767.160156 " fill-opacity="1" fill-rule="nonzero"/><path fill="#c9c5e3" d="M 608.367188 764.90625 L 606.765625 764.269531 C 616.710938 739.425781 628.113281 708.183594 638.058594 678.5625 C 647.761719 649.625 653.265625 627.726562 655.363281 609.609375 C 655.863281 605.15625 656.207031 600.835938 656.363281 596.792969 C 656.964844 582.257812 655.949219 569.046875 654.761719 555.660156 L 654.660156 554.492188 C 653.113281 536.773438 651.339844 516.679688 647.761719 491.5625 C 646.195312 480.449219 643.941406 467.699219 641.070312 453.714844 C 637.785156 437.59375 634.03125 420.355469 630.230469 403.859375 C 629.335938 400.003906 628.441406 396.167969 627.566406 392.332031 C 621.078125 364.414062 614.9375 338.058594 612.289062 315.367188 C 610.050781 296.253906 610.878906 281.199219 614.867188 268.023438 C 616.160156 263.753906 617.636719 259.851562 619.359375 256.066406 C 628.320312 236.417969 642.460938 222.019531 662.589844 212.042969 C 685.730469 200.550781 715.75 198.554688 736.839844 198.882812 C 746.871094 199.035156 757.15625 199.484375 767.082031 199.914062 C 803.125 201.480469 840.402344 203.078125 874.398438 191.605469 C 917.214844 177.15625 946.996094 145.363281 964.4375 121.242188 C 986.21875 91.121094 1000.789062 57.609375 1014.863281 25.179688 L 1015.1875 24.421875 L 1016.773438 25.113281 L 1016.445312 25.867188 C 1002.320312 58.367188 987.734375 91.980469 965.832031 122.257812 C 948.234375 146.585938 918.195312 178.632812 874.949219 193.238281 C 840.644531 204.816406 803.210938 203.199219 767.015625 201.632812 C 757.089844 201.203125 746.816406 200.757812 736.804688 200.601562 C 715.902344 200.277344 686.195312 202.253906 663.347656 213.589844 C 643.597656 223.398438 629.714844 237.519531 620.90625 256.789062 C 619.203125 260.503906 617.777344 264.339844 616.484375 268.539062 C 612.546875 281.476562 611.753906 296.304688 613.957031 315.175781 C 616.605469 337.765625 622.730469 364.085938 629.199219 391.953125 C 630.09375 395.792969 630.988281 399.628906 631.867188 403.480469 C 635.667969 419.980469 639.417969 437.234375 642.703125 453.371094 C 645.578125 467.390625 647.847656 480.15625 649.414062 491.320312 C 653.007812 516.488281 654.761719 536.601562 656.328125 554.355469 L 656.433594 555.523438 C 657.617188 568.976562 658.632812 582.257812 658.03125 596.878906 C 657.859375 600.957031 657.515625 605.328125 657.015625 609.835938 C 654.902344 628.070312 649.378906 650.089844 639.640625 679.144531 C 629.75 708.769531 618.328125 740.046875 608.367188 764.90625 Z M 608.367188 764.90625 " fill-opacity="1" fill-rule="nonzero"/><path fill="#c9c5e3" d="M 624.777344 762.667969 L 623.246094 761.878906 C 635.082031 739.238281 645.78125 709.578125 652.59375 680.503906 C 658.738281 654.320312 660.957031 630.203125 659.203125 608.835938 C 658.804688 604.121094 658.222656 599.410156 657.464844 594.796875 C 654.816406 579.039062 650.582031 564.488281 646.128906 549.742188 C 640.449219 530.941406 634.015625 509.609375 627.066406 484.714844 C 625.378906 478.640625 623.609375 472.363281 621.785156 465.910156 C 620.21875 460.335938 618.601562 454.609375 616.96875 448.792969 C 612.820312 433.878906 608.691406 417.640625 605.046875 401.8125 C 596.582031 365.238281 592.746094 338.074219 592.933594 316.328125 C 593.105469 297.851562 596.460938 282.457031 603.203125 269.242188 C 605.269531 265.21875 607.589844 261.347656 610.136719 257.734375 C 622.25 240.546875 638.59375 228.164062 660.097656 219.886719 C 678.539062 212.800781 703.140625 209.445312 731.25 210.203125 C 740.78125 210.460938 750.550781 210.957031 759.996094 211.441406 C 797.722656 213.351562 836.738281 215.347656 872.160156 202.71875 C 916.183594 187.027344 945.773438 152.640625 962.855469 126.558594 C 984.378906 93.703125 998.019531 56.972656 1011.214844 21.464844 L 1011.285156 21.277344 L 1012.902344 21.878906 L 1012.832031 22.066406 C 999.601562 57.675781 985.910156 94.492188 964.300781 127.503906 C 947.082031 153.808594 917.214844 188.492188 872.746094 204.351562 C 836.996094 217.101562 797.808594 215.105469 759.910156 213.179688 C 750.480469 212.695312 740.710938 212.199219 731.214844 211.957031 C 703.34375 211.21875 678.96875 214.519531 660.734375 221.539062 C 639.539062 229.691406 623.453125 241.875 611.546875 258.765625 C 609.054688 262.3125 606.765625 266.113281 604.734375 270.070312 C 598.113281 283.023438 594.808594 298.179688 594.65625 316.378906 C 594.464844 337.988281 598.300781 365.015625 606.730469 401.449219 C 610.378906 417.242188 614.507812 433.464844 618.636719 448.347656 C 620.269531 454.179688 621.871094 459.890625 623.453125 465.464844 C 625.277344 471.933594 627.046875 478.210938 628.734375 484.285156 C 635.683594 509.160156 642.101562 530.476562 647.777344 549.277344 C 652.25 564.089844 656.484375 578.695312 659.167969 594.558594 C 659.941406 599.203125 660.527344 603.96875 660.921875 608.734375 C 662.675781 630.289062 660.441406 654.582031 654.265625 680.9375 C 647.332031 710.523438 636.855469 739.5625 624.777344 762.667969 Z M 624.777344 762.667969 " fill-opacity="1" fill-rule="nonzero"/><path fill="#c9c5e3" d="M 641.171875 760.414062 L 639.746094 759.46875 C 653.679688 738.53125 663.417969 711.160156 667.132812 682.449219 C 670.433594 657.625 669.023438 631.890625 663.070312 608.027344 C 661.78125 602.902344 660.269531 597.757812 658.582031 592.785156 C 653.113281 576.734375 646.195312 561.597656 637.507812 543.789062 C 635.71875 540.109375 633.894531 536.429688 632.070312 532.710938 C 623.554688 515.386719 614.75 497.480469 606.386719 477.886719 C 601.210938 465.722656 596.789062 454.59375 592.882812 443.855469 C 587.722656 429.628906 583.351562 414.800781 579.859375 399.765625 C 572.566406 368.265625 570.449219 340.515625 573.597656 317.292969 C 576.179688 298.832031 582.042969 283.523438 591.558594 270.480469 C 594.363281 266.613281 597.527344 262.894531 600.917969 259.421875 C 615.351562 244.730469 634.429688 234.082031 657.617188 227.730469 C 676.285156 222.570312 699.164062 220.488281 725.65625 221.503906 C 734.570312 221.847656 743.703125 222.382812 752.53125 222.898438 C 792.0625 225.21875 832.953125 227.628906 869.90625 213.78125 C 915.117188 196.835938 944.535156 159.867188 961.238281 131.824219 C 982.453125 96.246094 995.113281 56.492188 1007.363281 18.058594 L 1008.996094 18.574219 C 996.710938 57.109375 984.015625 96.953125 962.71875 132.703125 C 945.859375 160.984375 916.183594 198.28125 870.507812 215.398438 C 833.210938 229.367188 792.148438 226.957031 752.425781 224.617188 C 743.601562 224.101562 734.484375 223.570312 725.589844 223.226562 C 699.285156 222.210938 676.558594 224.292969 658.082031 229.402344 C 635.1875 235.664062 616.382812 246.15625 602.15625 260.625 C 598.816406 264.03125 595.722656 267.679688 592.953125 271.480469 C 583.609375 284.28125 577.847656 299.332031 575.300781 317.5 C 572.1875 340.515625 574.285156 368.042969 581.527344 399.335938 C 585.003906 414.320312 589.355469 429.078125 594.5 443.238281 C 598.386719 453.9375 602.792969 465.035156 607.96875 477.164062 C 616.3125 496.707031 625.105469 514.597656 633.601562 531.902344 C 635.425781 535.621094 637.25 539.300781 639.039062 542.980469 C 647.761719 560.839844 654.695312 576.046875 660.199219 592.183594 C 661.902344 597.207031 663.433594 602.386719 664.722656 607.5625 C 670.726562 631.632812 672.15625 657.589844 668.816406 682.621094 C 665.085938 711.644531 655.246094 739.253906 641.171875 760.414062 Z M 641.171875 760.414062 " fill-opacity="1" fill-rule="nonzero"/><g clip-path="url(#bfecd4df86)"><path fill="#c9c5e3" d="M 657.550781 758.160156 L 656.226562 757.058594 C 695.550781 709.941406 683.800781 640.214844 659.683594 590.6875 C 647.28125 565.210938 631.230469 541.160156 615.710938 517.917969 C 598.9375 492.785156 581.613281 466.804688 568.796875 438.917969 C 546.539062 390.476562 536.078125 317.636719 579.910156 271.738281 C 608.140625 242.183594 653.988281 229.433594 720.050781 232.824219 C 728.1875 233.238281 736.511719 233.804688 744.5625 234.339844 C 786.074219 237.140625 829.015625 240.015625 867.636719 224.875 C 903.832031 210.683594 936.5 179.511719 959.621094 137.121094 C 980.488281 98.863281 992.152344 56.164062 1003.421875 14.875 L 1005.074219 15.324219 C 993.769531 56.714844 982.089844 99.5 961.121094 137.949219 C 937.808594 180.699219 904.828125 212.144531 868.253906 226.492188 C 829.273438 241.789062 786.144531 238.878906 744.425781 236.074219 C 736.375 235.523438 728.050781 234.976562 719.945312 234.5625 C 654.402344 231.222656 609.003906 243.78125 581.132812 272.960938 C 537.902344 318.222656 548.292969 390.285156 570.347656 438.230469 C 583.109375 465.996094 600.402344 491.921875 617.140625 517.003906 C 632.691406 540.296875 648.757812 564.402344 661.214844 589.980469 C 685.589844 639.957031 697.410156 710.40625 657.550781 758.160156 Z M 657.550781 758.160156 " fill-opacity="1" fill-rule="nonzero"/></g></svg>