<svg xmlns="http://www.w3.org/2000/svg" xmlns:xlink="http://www.w3.org/1999/xlink" width="1920" zoomAndPan="magnify" viewBox="0 0 1440 809.999993" height="1080" preserveAspectRatio="xMidYMid meet" version="1.0"><defs><clipPath id="c4657a0943"><path d="M 633 16.222656 L 890 16.222656 L 890 760 L 633 760 Z M 633 16.222656 " clip-rule="nonzero"/></clipPath><clipPath id="425de1f7c9"><path d="M 98 151 L 1344.210938 151 L 1344.210938 793.972656 L 98 793.972656 Z M 98 151 " clip-rule="nonzero"/></clipPath></defs><g clip-path="url(#c4657a0943)"><path fill="#c9c5e3" d="M 672.90625 19.699219 C 678.011719 19.699219 683.921875 27.414062 689.53125 41.40625 C 696.019531 57.542969 701.953125 77.535156 707.1875 100.824219 C 715.292969 136.914062 722.722656 176.65625 729.261719 211.703125 C 734.769531 241.179688 740.554688 264.542969 747.066406 283.140625 C 751.359375 295.488281 756.378906 303.695312 762.402344 308.238281 C 764.136719 309.667969 766.125 310.429688 768.375 310.523438 C 776.492188 310.523438 781.375 298.613281 785.804688 268.03125 C 788.3125 250.992188 790.082031 233.199219 791.375 219.59375 C 793.007812 202.554688 794.789062 184.347656 796.808594 166.730469 C 800.460938 135.09375 805.59375 109.960938 812.066406 92.039062 C 817.851562 76.003906 824.90625 65.222656 833.011719 60.003906 C 834.375 59.019531 835.898438 58.480469 837.578125 58.386719 C 843.164062 58.386719 848.695312 67.167969 853.164062 83.003906 C 857.519531 98.476562 860.882812 120.285156 863.140625 147.804688 C 868.625 214.714844 874.9375 294.007812 880.03125 374.757812 C 884.785156 450.1875 886.957031 513.707031 886.871094 574.644531 C 886.871094 607.042969 886.367188 641.902344 883.34375 677.378906 C 881.988281 693.164062 880.28125 706.753906 878.125 718.964844 C 872.789062 749.003906 866.492188 757.023438 863.605469 757.023438 C 862.160156 757.023438 860.167969 754.964844 858.257812 751.515625 C 853.730469 743.320312 849.652344 730.484375 845.046875 709.914062 C 839.789062 686.449219 835.007812 658.78125 829.8125 622.828125 C 828.871094 616.265625 827.941406 609.664062 827.027344 603.066406 C 822.960938 573.941406 818.742188 543.8125 813.222656 518.023438 C 810.210938 503.917969 807.324219 494.246094 804.136719 487.570312 C 800.6875 480.367188 796.984375 476.863281 792.84375 476.863281 C 787.925781 476.863281 783.820312 481.683594 780.292969 491.570312 C 777.121094 500.429688 774.449219 513.15625 772.363281 529.367188 C 770.820312 541.363281 769.566406 553.660156 768.171875 568.445312 C 764.835938 603.578125 760.78125 644.175781 754.746094 681.707031 C 752.625 696.007812 749.621094 710.121094 745.722656 724.046875 C 739.273438 745.816406 734.078125 748.164062 732.132812 748.164062 C 731.402344 748.082031 730.710938 747.867188 730.0625 747.523438 C 729.410156 747.179688 728.847656 746.726562 728.371094 746.167969 C 719.585938 737.734375 713.148438 713.628906 708.039062 691.15625 C 701.515625 662.457031 695.957031 631.285156 689.882812 596.453125 C 687.839844 584.65625 685.785156 572.878906 683.710938 561.117188 C 675.515625 514.449219 667.058594 466.1875 659.316406 416.933594 C 650.21875 359.035156 643.742188 301.488281 639.511719 241.128906 C 636.929688 204.285156 636.101562 172.964844 637.003906 145.410156 C 638.824219 102.027344 644.144531 69.726562 653.316406 46.640625 C 662.589844 23.199219 669.628906 19.699219 672.929688 19.699219 M 672.929688 16.875 C 665.800781 16.875 658.386719 26.136719 650.695312 45.597656 C 641.582031 68.648438 636.101562 100.6875 634.230469 145.28125 C 633.226562 176.765625 634.542969 209.59375 636.738281 241.328125 C 641.195312 304.886719 648.035156 363.050781 656.578125 417.371094 C 666.230469 478.859375 676.808594 537.550781 687.160156 596.929688 C 692.871094 629.730469 698.640625 662.332031 705.332031 691.78125 C 711.113281 717.21875 717.503906 739.628906 726.460938 748.25 C 727.203125 749.054688 728.066406 749.691406 729.054688 750.160156 C 730.039062 750.628906 731.078125 750.898438 732.171875 750.960938 C 737.882812 750.960938 743.289062 742.328125 748.484375 724.824219 C 752.40625 710.792969 755.441406 696.570312 757.582031 682.160156 C 763.367188 646.167969 767.332031 607.65625 771.035156 568.707031 C 772.289062 555.554688 773.542969 542.355469 775.210938 529.71875 C 779.402344 497.230469 785.890625 479.699219 792.90625 479.699219 C 795.78125 479.699219 798.753906 482.675781 801.691406 488.796875 C 805.214844 496.140625 807.964844 506.691406 810.574219 518.613281 C 817.273438 550.046875 821.957031 587.292969 827.101562 623.230469 C 831.542969 654.375 836.4375 684.066406 842.371094 710.53125 C 846.226562 727.734375 850.480469 743.15625 855.875 752.882812 C 858.460938 757.5625 861.09375 759.847656 863.691406 759.847656 C 870.117188 759.847656 876.316406 745.804688 880.984375 719.453125 C 883.304688 706.402344 884.972656 692.386719 886.242188 677.617188 C 889.191406 643.15625 889.742188 608.875 889.792969 574.71875 C 889.894531 505.3125 887.007812 439.28125 882.929688 374.644531 C 878.074219 297.632812 872.175781 222.355469 866.039062 147.640625 C 861.773438 96.019531 852.851562 55.5625 837.578125 55.5625 C 835.324219 55.636719 833.273438 56.324219 831.429688 57.621094 C 814.867188 68.285156 801.613281 99.894531 793.960938 166.390625 C 791.953125 183.78125 790.195312 201.527344 788.515625 219.320312 C 786.933594 235.820312 785.214844 252.046875 782.957031 267.617188 C 778.976562 295.050781 774.558594 307.6875 768.324219 307.6875 C 766.707031 307.585938 765.28125 307.011719 764.042969 305.964844 C 758.773438 301.988281 753.917969 294.398438 749.6875 282.210938 C 742.8125 262.460938 737.054688 238.292969 731.996094 211.1875 C 724.90625 173.242188 717.789062 135.371094 709.898438 100.207031 C 704.675781 77.007812 698.765625 56.929688 692.117188 40.351562 C 685.980469 24.957031 679.566406 16.875 672.90625 16.875 Z M 672.929688 16.875 " fill-opacity="1" fill-rule="nonzero"/></g><path fill="#c9c5e3" d="M 613.890625 42.5625 C 620.023438 42.5625 626.714844 49.902344 633.265625 63.792969 L 633.328125 63.929688 L 633.402344 64.042969 C 643.113281 80.695312 651.921875 100.761719 660.332031 125.367188 C 666.355469 144.367188 671.964844 163.691406 677.898438 184.144531 C 682.566406 200.195312 687.386719 216.773438 692.390625 233.085938 C 699.28125 260.214844 706.433594 281.507812 714.214844 298.160156 L 714.390625 298.511719 L 714.640625 298.828125 C 723.890625 310.121094 733.816406 316.394531 742.597656 316.394531 C 743.601562 316.394531 744.597656 316.3125 745.585938 316.144531 C 746.667969 316.5625 747.789062 316.777344 748.949219 316.785156 C 757.496094 316.785156 762.601562 305.328125 767.167969 275.925781 C 768.003906 271.609375 768.84375 267.269531 769.679688 262.914062 C 772.265625 249.347656 774.9375 235.304688 778.222656 221.503906 L 778.222656 221.277344 C 781.449219 201.460938 784.5 185.5625 787.886719 171.246094 L 787.886719 171.070312 C 792.90625 142.722656 799.429688 120.4375 807.261719 104.839844 C 814.289062 90.847656 822.621094 81.789062 832.007812 77.886719 C 833.605469 77.183594 835.28125 76.820312 837.027344 76.792969 C 844.355469 76.792969 851.230469 84.472656 857.441406 99.632812 C 863.191406 113.636719 868.195312 133.828125 872.300781 159.601562 C 883.179688 231.027344 892.503906 298.4375 900.8125 365.671875 L 900.8125 365.859375 C 910.371094 417.472656 922.40625 486.0625 930.714844 558.996094 L 930.714844 559.234375 C 938.542969 600.90625 942.9375 635.566406 944.515625 668.40625 C 945.773438 687.226562 945.519531 701.984375 943.828125 715.035156 C 939.734375 740.835938 932.820312 756.230469 925.332031 756.230469 C 923.421875 756.230469 921.277344 755.226562 918.96875 753.234375 L 918.464844 752.792969 L 917.8125 752.59375 C 906.28125 749.042969 894.246094 737.621094 881.023438 717.707031 C 872.136719 695.222656 863.679688 668.53125 855.171875 636.144531 L 855.171875 636.042969 C 852.222656 626.003906 849.285156 615.75 846.449219 605.8125 C 839.523438 580.929688 832.207031 555.207031 824.140625 532.617188 L 824.140625 532.378906 C 817.074219 516.730469 810.335938 505.613281 803.007812 497.457031 C 798.855469 490.605469 794.222656 487.128906 789.441406 487.128906 C 779.492188 487.128906 771.195312 501.558594 764.785156 530.03125 C 758.171875 539.34375 753.492188 551.175781 749.488281 568.253906 L 749.488281 568.59375 L 748.8125 574.164062 C 744.832031 606.691406 740.730469 640.335938 735.421875 671.265625 C 732.144531 688.960938 728.933594 702.425781 725.382812 713.578125 C 718.242188 734.472656 708.40625 745.0625 696.144531 745.0625 C 693.476562 745.042969 690.867188 744.625 688.328125 743.808594 C 672.125 738.714844 658.4375 719.328125 647.632812 686.175781 C 637.503906 655.832031 627.164062 620.417969 616.011719 577.894531 C 604.328125 525.101562 591.011719 463.488281 580.875 400.382812 C 572.15625 346.472656 566.519531 292.242188 563.957031 237.691406 C 562.351562 204.472656 562.453125 176.113281 564.296875 150.96875 C 569.039062 111.402344 578.855469 82.050781 593.472656 63.730469 L 593.660156 63.492188 L 593.800781 63.242188 C 600.976562 49.765625 607.980469 42.636719 614.050781 42.636719 M 614.050781 39.4375 C 606.6875 39.4375 598.992188 46.625 590.964844 61.722656 C 576.882812 79.378906 566.191406 108.152344 561.097656 150.667969 C 559.015625 179.152344 559.351562 208.917969 560.757812 237.839844 C 563.269531 292.496094 568.863281 346.835938 577.535156 400.859375 C 587.285156 461.792969 599.695312 519.980469 612.671875 578.621094 C 622.472656 615.953125 632.960938 652.945312 644.382812 687.164062 C 653.753906 715.953125 667.269531 740.597656 687.148438 746.847656 C 690 747.773438 692.929688 748.25 695.929688 748.277344 C 709.320312 748.277344 720.402344 737.472656 728.207031 714.632812 C 732.515625 700.570312 735.929688 686.296875 738.445312 671.804688 C 744.078125 639.027344 748.246094 604.132812 752.550781 568.90625 C 756.050781 553.773438 760.53125 541.1875 767.707031 531.261719 C 773.644531 504.597656 781.347656 490.230469 789.378906 490.230469 C 793.019531 490.230469 796.722656 493.179688 800.347656 499.265625 C 808.316406 508.046875 815.042969 520.058594 821.152344 533.585938 C 832.445312 565.144531 841.921875 601.710938 852.285156 636.820312 C 860.027344 666.371094 868.597656 694.304688 878.375 719.089844 C 890.796875 737.910156 903.472656 751.363281 917.085938 755.542969 C 920.023438 758.050781 922.859375 759.304688 925.542969 759.304688 C 934.957031 759.304688 942.660156 744.085938 947.214844 715.386719 C 949.160156 700.492188 949.007812 684.554688 947.929688 668.089844 C 946.125 630.933594 940.816406 594.519531 934.050781 558.582031 C 926.433594 491.621094 915.71875 427.875 904.125 365.234375 C 895.476562 295.226562 885.902344 226.722656 875.601562 159.0625 C 867.972656 111.226562 855.886719 73.53125 837.152344 73.53125 C 834.972656 73.550781 832.878906 73.996094 830.878906 74.859375 C 811.390625 82.96875 795.402344 110.835938 784.835938 170.457031 C 781.011719 186.769531 777.910156 203.660156 775.136719 220.710938 C 770.78125 239.03125 767.609375 257.417969 764.058594 275.324219 C 759.992188 301.511719 755.472656 313.535156 749 313.535156 C 747.921875 313.503906 746.910156 313.238281 745.960938 312.730469 C 744.875 313.011719 743.773438 313.152344 742.648438 313.144531 C 735.558594 313.144531 726.335938 308 717.175781 296.730469 C 708.820312 278.863281 701.804688 256.828125 695.53125 232.144531 C 684.347656 195.753906 674.359375 158.796875 663.417969 124.316406 C 655.335938 100.648438 646.390625 79.832031 636.214844 62.363281 C 629.085938 47.304688 621.683594 39.296875 613.925781 39.296875 Z M 614.050781 39.4375 " fill-opacity="1" fill-rule="nonzero"/><path fill="#c9c5e3" d="M 554.132812 65.210938 C 561.597656 65.210938 569.304688 72.289062 577.046875 86.242188 L 577.160156 86.457031 L 577.308594 86.65625 C 590.109375 103.773438 601.941406 124.476562 613.511719 149.964844 C 619.183594 163.679688 624.804688 178.085938 630.214844 192.015625 C 638.234375 212.59375 646.527344 233.863281 655.574219 254.53125 C 663.894531 279.261719 672.378906 298.449219 681.488281 313.257812 L 681.800781 313.773438 L 682.265625 314.160156 C 692.96875 322.945312 704.289062 327.75 714.164062 327.75 C 716.765625 327.800781 719.316406 327.453125 721.808594 326.703125 C 724.304688 325.957031 726.625 324.84375 728.769531 323.371094 L 729.210938 323.371094 C 739.75 323.371094 744.570312 307.574219 748.558594 283.84375 L 748.988281 282 C 753.515625 262.6875 758.195312 242.710938 765.023438 223.433594 L 765.085938 223.246094 L 765.085938 223.058594 C 768.691406 207.046875 773.292969 191.328125 778.890625 175.902344 L 778.953125 175.714844 L 778.953125 175.539062 C 791.238281 127.4375 808.253906 101.339844 830.953125 95.714844 C 832.539062 95.316406 834.148438 95.113281 835.785156 95.101562 C 853.25 95.101562 868.648438 120.824219 881.511719 171.496094 C 895.316406 229.410156 908.453125 289.992188 921.667969 356.6875 L 921.667969 357.0625 C 939.847656 414.710938 958.847656 477.191406 974.609375 543.460938 L 974.609375 543.660156 L 974.683594 543.847656 C 989.742188 585.574219 999.90625 623.320312 1005.816406 659.292969 L 1005.816406 659.359375 C 1009.746094 680.214844 1010.960938 696.640625 1009.582031 711.03125 C 1005.503906 740.132812 996.820312 756.207031 985.136719 756.207031 C 983.105469 756.175781 981.140625 755.785156 979.25 755.039062 L 978.535156 754.777344 L 977.769531 754.777344 C 976.679688 754.839844 975.5625 754.875 974.46875 754.875 C 956.226562 754.875 937.390625 745.289062 916.921875 725.550781 C 904.273438 704.21875 892.367188 679.210938 880.53125 649.242188 L 880.53125 649.082031 C 874.734375 636.320312 869.011719 623.144531 863.480469 610.394531 C 854.230469 589.0625 844.65625 567.0625 834.742188 547.097656 L 834.65625 546.921875 L 834.554688 546.761719 C 823.664062 529.707031 812.820312 516.820312 801.4375 507.382812 C 796.417969 500.644531 790.886719 497.21875 785.125 497.21875 C 774.597656 497.21875 765.148438 508.410156 757.042969 530.496094 C 744.957031 537.710938 736.726562 549.320312 730.441406 568.03125 L 730.339844 568.316406 L 730.339844 568.621094 C 728.984375 577.277344 727.652344 586.035156 726.359375 594.507812 C 722.859375 617.597656 719.546875 639.40625 715.59375 660.761719 C 712.804688 675.101562 709.128906 689.210938 704.566406 703.089844 C 694.789062 729.140625 678.539062 742.339844 656.265625 742.339844 C 653.59375 742.335938 650.933594 742.160156 648.285156 741.8125 C 616.011719 737.699219 597 706.527344 586.722656 681.066406 C 571.085938 643.308594 555.914062 602.300781 541.636719 559.183594 C 527.832031 508.160156 512.421875 447.414062 502.03125 383.679688 C 493.246094 328.804688 488.753906 281.296875 488.015625 234.140625 C 487.351562 204.5 488.390625 179.101562 491.203125 156.476562 C 498.820312 119.558594 513.226562 93.359375 532.863281 80.722656 L 533.414062 80.371094 L 533.804688 79.84375 C 541.03125 70.128906 547.871094 65.210938 554.121094 65.210938 M 554.121094 61.621094 C 546.742188 61.621094 539.0625 66.804688 530.917969 77.695312 C 511.871094 89.957031 495.957031 115.503906 487.652344 155.886719 C 484.488281 181.386719 483.886719 208.089844 484.425781 234.214844 C 485.265625 287.671875 490.9375 337.339844 498.480469 384.246094 C 508.332031 444.628906 522.574219 502.3125 538.183594 560.222656 C 552.0625 602.085938 567.257812 643.457031 583.359375 682.445312 C 596.332031 714.582031 616.964844 741.425781 647.78125 745.378906 C 650.582031 745.75 653.390625 745.9375 656.214844 745.941406 C 679.078125 745.941406 697.148438 732.953125 707.890625 704.304688 C 712.546875 690.261719 716.3125 675.980469 719.183594 661.464844 C 724.65625 631.902344 729.035156 600.605469 733.953125 569.171875 C 739.699219 552.066406 747.34375 540.109375 760.078125 532.945312 C 767.609375 512.039062 776.316406 500.808594 785.175781 500.808594 C 789.742188 500.808594 794.347656 503.769531 798.855469 509.878906 C 811.265625 520.082031 821.90625 533.570312 831.566406 548.691406 C 847.339844 580.402344 861.683594 616.265625 877.308594 650.574219 C 888.363281 678.507812 900.507812 704.707031 914.226562 727.796875 C 934.203125 747.035156 954.28125 758.492188 974.734375 758.492188 C 975.914062 758.492188 977.082031 758.492188 978.261719 758.378906 C 980.558594 759.265625 982.9375 759.722656 985.398438 759.746094 C 999.089844 759.746094 1008.992188 743.117188 1013.410156 711.445312 C 1014.976562 694.707031 1012.996094 676.851562 1009.570312 658.742188 C 1003.019531 618.839844 991.851562 580.300781 978.273438 542.65625 C 962.9375 478.144531 944.390625 416.65625 925.269531 356.011719 C 912.832031 293.015625 899.605469 231.304688 885.113281 170.695312 C 873.96875 126.5 858.484375 91.523438 835.898438 91.523438 C 833.972656 91.535156 832.078125 91.773438 830.210938 92.242188 C 807.789062 97.785156 789.078125 121.90625 775.589844 174.660156 C 769.949219 190.230469 765.296875 206.09375 761.636719 222.242188 C 754.507812 242.320312 749.777344 262.925781 745.035156 283.152344 C 740.816406 308.25 736.125 319.796875 729.210938 319.796875 C 728.71875 319.789062 728.234375 319.734375 727.753906 319.632812 C 725.824219 321.160156 723.691406 322.316406 721.359375 323.09375 C 719.023438 323.871094 716.625 324.226562 714.164062 324.160156 C 705.542969 324.160156 695.152344 320.070312 684.550781 311.375 C 674.6875 295.386719 666.417969 275.511719 658.9375 253.238281 C 643.679688 218.429688 630.792969 182.363281 616.8125 148.535156 C 605.871094 124.414062 593.898438 102.84375 580.183594 84.535156 C 571.902344 69.601562 563.269531 61.660156 554.132812 61.660156 Z M 554.121094 61.621094 " fill-opacity="1" fill-rule="nonzero"/><path fill="#c9c5e3" d="M 493.160156 87.496094 C 502.332031 87.496094 511.65625 94.648438 520.867188 108.753906 L 521.03125 109.003906 L 521.230469 109.230469 C 537.054688 126.863281 551.949219 148.246094 566.746094 174.582031 C 572.339844 185.476562 577.914062 196.84375 583.308594 207.824219 C 594.390625 230.414062 605.894531 253.738281 618.832031 276.0625 C 628.597656 298.335938 638.410156 315.480469 648.847656 328.453125 L 649.261719 328.96875 L 649.816406 329.320312 C 661.800781 336.925781 674.007812 340.953125 685.113281 340.953125 C 695.957031 340.953125 705.089844 337.1875 711.640625 330.136719 C 721.34375 327.738281 726.023438 313.03125 729.925781 291.785156 C 736.273438 267.855469 742.3125 246.324219 751.796875 225.28125 L 751.898438 225.066406 L 751.898438 224.839844 C 756.53125 209.546875 762.507812 194.800781 769.828125 180.59375 L 769.96875 180.332031 L 770.066406 180.066406 C 785.074219 138.28125 804.675781 116.496094 830.050781 113.496094 C 831.25 113.347656 832.453125 113.273438 833.664062 113.273438 C 854.65625 113.273438 873.390625 136.273438 890.949219 183.542969 C 907.675781 231.59375 924.101562 283.78125 942.636719 347.777344 L 942.710938 348.054688 L 942.835938 348.316406 C 968.410156 404.625 995.351562 464.855469 1018.804688 528.023438 L 1018.890625 528.261719 L 1019.003906 528.476562 C 1041.191406 571.316406 1057.027344 611.160156 1067.417969 650.261719 L 1067.417969 650.335938 C 1074.042969 673.160156 1076.664062 691.191406 1075.660156 707.078125 C 1072.875 729.980469 1064.769531 757.273438 1042.03125 757.273438 C 1041.292969 757.273438 1040.511719 757.273438 1039.746094 757.1875 L 1039.132812 757.1875 L 1038.542969 757.324219 C 1032.507812 758.730469 1026.394531 759.4375 1020.195312 759.445312 C 998.601562 759.445312 976.652344 751 953.089844 733.621094 C 936.773438 713.792969 921.015625 689.851562 906.082031 662.445312 L 906.082031 662.332031 L 906.019531 662.242188 C 896.429688 646.835938 887.058594 630.871094 877.996094 615.386719 C 867.496094 597.457031 856.664062 578.910156 845.648438 561.691406 L 845.535156 561.53125 L 845.410156 561.367188 C 830.625 542.65625 815.871094 528.3125 800.234375 517.523438 C 793.960938 510.71875 787.335938 507.28125 780.382812 507.28125 C 769.640625 507.28125 759.425781 515.324219 750.003906 531.226562 C 732.273438 536.019531 720.449219 547.425781 711.832031 567.980469 L 711.667969 568.34375 L 711.59375 568.730469 C 708.867188 582.386719 706.347656 596.1875 703.914062 609.527344 C 701.316406 623.667969 698.894531 637.046875 696.195312 650.359375 C 692.976562 664.722656 688.898438 678.835938 683.960938 692.699219 C 671.335938 724.207031 647.570312 740.183594 613.175781 740.183594 C 611.691406 740.183594 610.175781 740.183594 608.644531 740.09375 C 564.210938 738.375 539.1875 704.394531 526.011719 676.097656 C 504.417969 630.808594 484.703125 585.222656 467.4375 540.574219 C 452.589844 494.03125 434.167969 432.28125 423.351562 367.089844 C 414.933594 315.492188 411.394531 272.171875 412.222656 230.738281 C 412.484375 204.648438 414.457031 182.214844 418.234375 162.171875 C 428.722656 127.476562 447.859375 104.539062 472.191406 97.613281 L 473.070312 97.359375 L 473.746094 96.746094 C 480.5625 90.632812 487.113281 87.535156 493.183594 87.535156 M 493.183594 83.558594 C 486.15625 83.558594 478.816406 86.871094 471.101562 93.785156 C 447.058594 100.609375 425.988281 122.910156 414.40625 161.183594 C 410.140625 183.679688 408.519531 207.324219 408.28125 230.652344 C 407.316406 279.0625 412.410156 324.464844 419.460938 367.679688 C 429.386719 427.5 445.488281 484.683594 463.722656 541.851562 C 481.679688 588.28125 501.59375 633.996094 522.460938 677.765625 C 539.023438 713.253906 566.78125 742.339844 608.53125 743.960938 C 610.113281 743.960938 611.667969 744.046875 613.210938 744.046875 C 647.332031 744.046875 673.734375 728.988281 687.699219 694.015625 C 692.710938 679.964844 696.847656 665.660156 700.109375 651.101562 C 705.417969 624.75 710.011719 597.066406 715.53125 569.398438 C 723.550781 550.296875 734.355469 538.980469 752.636719 534.539062 C 761.421875 519.304688 770.882812 511.136719 780.421875 511.136719 C 786.207031 511.136719 792.003906 514.144531 797.636719 520.40625 C 814.488281 532.027344 829.007812 546.984375 842.273438 563.726562 C 862.574219 595.574219 881.789062 630.746094 902.617188 664.226562 C 916.972656 690.578125 932.734375 715.011719 950.300781 736.40625 C 973.503906 753.609375 996.730469 763.308594 1020.171875 763.308594 C 1026.675781 763.308594 1033.089844 762.566406 1039.421875 761.074219 C 1040.300781 761.152344 1041.152344 761.175781 1042.007812 761.175781 C 1062.085938 761.175781 1075.308594 742.84375 1079.589844 707.445312 C 1080.84375 688.835938 1076.980469 669.082031 1071.207031 649.21875 C 1059.914062 606.667969 1042.859375 565.996094 1022.480469 526.632812 C 999.453125 464.566406 973.101562 405.363281 946.449219 346.710938 C 930.238281 290.71875 913.335938 235.78125 894.6875 182.226562 C 879.628906 141.644531 860.566406 109.320312 833.664062 109.320312 C 832.300781 109.320312 830.941406 109.398438 829.585938 109.558594 C 804.210938 112.542969 782.78125 132.910156 766.390625 178.789062 C 758.945312 193.207031 752.875 208.179688 748.171875 223.710938 C 738.269531 245.621094 732.035156 268.371094 726.046875 290.910156 C 721.707031 314.5625 716.863281 325.742188 709.585938 326.457031 C 703.75 333.347656 695.191406 336.972656 685.113281 336.972656 C 675.039062 336.972656 663.695312 333.421875 651.949219 325.957031 C 640.65625 311.863281 631.082031 294.132812 622.382812 274.269531 C 603.035156 241.027344 587.25 205.855469 570.246094 172.703125 C 556.441406 148.105469 541.382812 125.796875 524.191406 106.570312 C 514.40625 91.601562 504.113281 83.519531 493.160156 83.519531 Z M 493.183594 83.558594 " fill-opacity="1" fill-rule="nonzero"/><path fill="#c9c5e3" d="M 429.992188 109.15625 C 441.835938 109.15625 453.207031 116.398438 464.761719 131.316406 L 464.949219 131.566406 L 465.175781 131.78125 C 484 149.964844 501.90625 172.023438 520.015625 199.214844 C 525.585938 208.238281 531.15625 217.601562 536.550781 226.648438 C 550.644531 250.289062 565.214844 274.734375 582.167969 297.671875 C 593.5625 317.75 604.425781 332.34375 616.347656 343.699219 L 616.789062 344.113281 L 617.316406 344.390625 C 630.300781 351.28125 643.566406 354.917969 655.6875 354.917969 C 672 354.917969 685.667969 348.457031 694.324219 336.699219 C 701.855469 332.53125 706.796875 321.640625 711.289062 299.730469 C 718.230469 275.886719 726.046875 250.628906 738.558594 227.226562 L 738.671875 227.023438 L 738.757812 226.796875 C 745.347656 210.410156 752.5625 196.882812 760.71875 185.464844 L 760.933594 185.175781 L 761.082031 184.847656 C 778.726562 149.199219 800.949219 131.65625 829.019531 131.230469 L 829.773438 131.230469 C 843.578125 131.230469 856.277344 137.203125 868.675781 149.5 C 879.203125 159.941406 889.554688 175.0625 900.332031 195.742188 C 925.304688 246.636719 947.253906 299.078125 963.578125 339.070312 L 963.703125 339.382812 L 963.878906 339.683594 C 995.476562 392.050781 1031.300781 451.367188 1062.898438 512.640625 L 1063 512.855469 L 1063.136719 513.054688 C 1092.414062 557.277344 1113.898438 599.199219 1128.816406 641.226562 L 1128.816406 641.300781 C 1138.128906 666.058594 1142.15625 685.710938 1141.476562 703.140625 C 1137.925781 737.511719 1124.011719 756.46875 1100.070312 759.507812 L 1099.652344 759.507812 L 1099.253906 759.644531 C 1087.847656 763.429688 1076.132812 765.332031 1064.117188 765.355469 C 1040.050781 765.355469 1014.75 757.335938 988.9375 741.511719 C 967.441406 721.4375 948.226562 699.378906 931.289062 675.332031 L 931.214844 675.230469 L 931.214844 675.144531 C 916.660156 656.898438 902.554688 637.847656 888.914062 619.429688 C 878.261719 605.035156 867.242188 590.164062 856.289062 576.046875 L 856.175781 575.910156 L 856.0625 575.785156 C 837.429688 555.457031 818.757812 539.644531 798.917969 527.472656 C 791.085938 520.421875 782.703125 516.84375 774.007812 516.84375 C 763.582031 516.84375 753.203125 521.925781 743.152344 531.902344 C 719.621094 534.085938 704.113281 545.167969 693.121094 567.753906 L 692.933594 568.144531 L 692.820312 568.570312 C 688.441406 585.648438 684.726562 602.890625 681.125 619.554688 C 679.695312 626.21875 678.210938 633.09375 676.71875 639.746094 C 673.136719 654.136719 668.699219 668.261719 663.40625 682.121094 C 655.5 700.945312 643.226562 715.222656 626.953125 724.507812 C 611.53125 733.292969 592.09375 737.910156 569.230469 738.210938 L 567.535156 738.210938 C 544.234375 738.210938 523.25 731.636719 505.179688 718.699219 C 489.296875 707.316406 475.929688 691.304688 465.429688 671.015625 C 437.15625 617.582031 413.578125 568.78125 393.363281 521.890625 C 368.414062 454.441406 353.433594 401.546875 344.785156 350.414062 C 339.367188 317.789062 333.492188 274.308594 336.542969 227.324219 C 337.710938 204.738281 340.582031 185.300781 345.324219 167.894531 C 358.742188 135.195312 382.847656 115.605469 411.496094 114.148438 L 412.433594 114.148438 L 413.277344 113.710938 C 415.851562 112.300781 418.558594 111.210938 421.394531 110.449219 C 424.230469 109.6875 427.117188 109.273438 430.054688 109.207031 M 430.054688 104.839844 C 426.757812 104.902344 423.519531 105.355469 420.335938 106.203125 C 417.152344 107.054688 414.117188 108.273438 411.230469 109.859375 C 382.242188 111.339844 355.90625 130.386719 341.160156 166.554688 C 335.8125 186.066406 333.214844 206.707031 332.164062 227.164062 C 329.375 270.53125 333.894531 311.6875 340.445312 351.191406 C 350.484375 410.457031 368.402344 467.152344 389.269531 523.570312 C 411.304688 574.515625 435.9375 624.636719 461.523438 673.160156 C 481.464844 711.585938 515.796875 742.628906 567.496094 742.628906 L 569.253906 742.628906 C 615.144531 742.027344 650.304688 724.761719 667.472656 683.828125 C 672.828125 669.765625 677.332031 655.433594 680.984375 640.835938 C 686.144531 617.695312 690.9375 593.628906 697.0625 569.722656 C 707.335938 548.640625 721.304688 537.949219 745.132812 536.246094 C 754.558594 526.46875 764.332031 521.273438 773.996094 521.273438 C 781.523438 521.273438 789.054688 524.4375 796.28125 531.050781 C 817.613281 544.085938 836.058594 560.511719 852.835938 578.847656 C 877.683594 610.84375 901.777344 645.355469 927.789062 677.980469 C 944.96875 702.40625 964.488281 724.789062 986.355469 745.125 C 1012.292969 761.101562 1038.230469 769.847656 1064.15625 769.847656 C 1076.644531 769.835938 1088.8125 767.851562 1100.65625 763.898438 C 1126.421875 760.636719 1142.066406 740.394531 1145.832031 703.527344 C 1146.660156 683.074219 1141.015625 661.402344 1132.90625 639.84375 C 1116.847656 594.59375 1094.007812 551.792969 1066.753906 510.722656 C 1035.984375 451.078125 1001.789062 394.15625 967.617188 337.550781 C 947.628906 288.613281 927.050781 240.402344 904.238281 193.910156 C 884.910156 156.804688 861.761719 127 829.761719 127 L 828.945312 127 C 800.636719 127.425781 776.46875 144.039062 757.167969 183.042969 C 747.871094 195.917969 740.730469 210.234375 734.679688 225.179688 C 722.007812 248.894531 714.253906 273.816406 707.074219 298.6875 C 702.894531 319.117188 698.289062 330.210938 691.425781 333.308594 C 683.519531 344.605469 670.808594 350.5625 655.699219 350.5625 C 644.570312 350.5625 632.121094 347.3125 619.371094 340.523438 C 606.535156 328.316406 595.742188 312.730469 585.84375 295.277344 C 562.402344 263.601562 543.753906 229.34375 523.691406 196.84375 C 507.011719 171.746094 488.992188 148.746094 468.226562 128.644531 C 456.304688 113.246094 443.742188 104.800781 430.003906 104.800781 Z M 430.054688 104.839844 " fill-opacity="1" fill-rule="nonzero"/><path fill="#c9c5e3" d="M 362.253906 129.507812 C 378.316406 129.507812 393.511719 137.503906 408.683594 153.941406 L 408.859375 154.140625 L 409.058594 154.316406 C 430.742188 173.039062 451.726562 195.789062 473.257812 223.863281 C 478.792969 231.492188 484.339844 239.359375 489.710938 246.964844 C 506.824219 271.21875 524.519531 296.304688 545.550781 319.332031 C 558.488281 336.8125 570.648438 349.449219 583.921875 358.972656 L 584.300781 359.234375 L 584.714844 359.421875 C 598.832031 365.949219 612.710938 369.261719 625.984375 369.261719 C 648.097656 369.261719 666.140625 360.027344 676.832031 343.222656 C 683.445312 337.199219 688.1875 326.484375 692.59375 307.6875 C 700.597656 281.960938 709.722656 254.707031 725.21875 229.09375 L 725.320312 228.929688 L 725.40625 228.753906 C 733.101562 213.296875 741.59375 200.710938 751.34375 190.292969 L 751.582031 190.042969 L 751.785156 189.753906 C 770.882812 162.148438 793.746094 148.707031 821.71875 148.707031 C 823.738281 148.707031 825.832031 148.707031 827.917969 148.921875 C 864.632812 151.433594 890.984375 181.824219 909.832031 208.050781 C 937.527344 248.519531 962.136719 290.871094 984.609375 330.472656 L 984.761719 330.761719 L 984.960938 331.011719 L 991.925781 340 C 1030.699219 390.820312 1070.816406 443.347656 1107.121094 497.292969 L 1107.234375 497.445312 L 1107.347656 497.59375 C 1143.738281 543.320312 1170.816406 587.355469 1190.304688 632.253906 C 1202.125 658.605469 1207.710938 680.464844 1207.371094 699.210938 C 1205.914062 716.441406 1201.171875 730.46875 1193.292969 740.910156 C 1185.597656 751.085938 1174.617188 758.191406 1160.664062 761.992188 L 1160.414062 762.054688 L 1160.175781 762.15625 C 1151.769531 765.484375 1143.128906 768 1134.25 769.703125 C 1125.371094 771.410156 1116.410156 772.273438 1107.371094 772.292969 C 1080.78125 772.292969 1053.035156 764.765625 1024.878906 749.707031 C 999.871094 731.765625 977.078125 711.347656 956.5 688.457031 L 956.5 688.382812 L 956.4375 688.320312 C 935.28125 666.785156 915.027344 644.085938 895.328125 622.125 C 886.054688 611.75 876.503906 601.03125 866.992188 590.679688 L 866.90625 590.578125 L 866.804688 590.492188 C 844.34375 568.457031 821.703125 551.152344 797.597656 537.601562 C 787.222656 529.871094 776.027344 525.953125 764.332031 525.953125 C 759.488281 526.023438 754.722656 526.65625 750.03125 527.859375 C 745.339844 529.0625 740.855469 530.800781 736.574219 533.070312 L 733.664062 533.070312 C 705.730469 533.070312 687.460938 543.75 674.449219 567.714844 L 674.246094 568.078125 L 674.109375 568.480469 C 667.746094 587.492188 662.929688 606.792969 658.246094 625.464844 L 657.292969 629.230469 C 653.285156 643.644531 648.488281 657.789062 642.902344 671.667969 C 640.769531 676.703125 638.230469 681.527344 635.285156 686.136719 C 632.335938 690.742188 629.027344 695.070312 625.347656 699.121094 C 621.671875 703.167969 617.683594 706.878906 613.378906 710.253906 C 609.074219 713.628906 604.519531 716.621094 599.710938 719.226562 C 581.261719 729.328125 557.734375 735.125 529.75 736.457031 C 527.179688 736.582031 524.582031 736.644531 522.058594 736.644531 C 495.21875 736.644531 471.0625 729.742188 450.269531 716.128906 C 431.984375 704.15625 416.675781 687.339844 404.730469 666.132812 C 369.507812 604.21875 342.3125 552.46875 319.164062 503.265625 C 291.292969 437.210938 274.929688 384.945312 266.121094 333.863281 C 260.761719 302.214844 255.929688 264.445312 260.75 224.199219 L 260.75 224.136719 C 262.769531 205.039062 266.519531 188.589844 272.230469 173.855469 C 287 146.035156 312.171875 130.085938 341.324219 130.085938 C 344.507812 130.089844 347.683594 130.273438 350.847656 130.640625 L 351.574219 130.726562 L 352.289062 130.589844 C 355.605469 129.9375 358.953125 129.609375 362.328125 129.597656 M 362.328125 124.855469 C 358.65625 124.863281 355.015625 125.222656 351.410156 125.933594 C 348.078125 125.546875 344.730469 125.347656 341.375 125.34375 C 311.332031 125.34375 284.140625 141.21875 267.964844 171.886719 C 261.527344 188.398438 257.925781 205.929688 256.082031 223.636719 C 251.488281 261.945312 255.414062 298.851562 261.488281 334.652344 C 271.605469 393.367188 291.367188 449.558594 314.871094 505.238281 C 340.984375 560.726562 370.335938 615.226562 400.652344 668.519531 C 423.402344 708.949219 462.90625 741.414062 522.097656 741.414062 C 524.695312 741.414062 527.34375 741.351562 530.015625 741.222656 C 585.429688 738.601562 627.554688 718.925781 647.292969 673.574219 C 652.96875 659.488281 657.839844 645.128906 661.914062 630.496094 C 666.929688 610.570312 671.949219 590.113281 678.652344 569.960938 C 690.597656 547.964844 706.734375 537.800781 733.703125 537.800781 C 734.957031 537.800781 736.335938 537.800781 737.691406 537.863281 C 741.78125 535.601562 746.082031 533.863281 750.59375 532.652344 C 755.105469 531.445312 759.699219 530.796875 764.371094 530.710938 C 774.875 530.710938 785.199219 534.199219 795.050781 541.601562 C 820.8125 556.058594 843.1875 573.953125 863.527344 593.90625 C 892.792969 625.953125 921.652344 659.722656 953.023438 691.582031 C 973.894531 714.804688 997.019531 735.507812 1022.40625 753.683594 C 1050.777344 768.894531 1079.125 777.074219 1107.382812 777.074219 C 1116.726562 777.058594 1125.984375 776.164062 1135.15625 774.398438 C 1144.328125 772.628906 1153.253906 770.015625 1161.933594 766.558594 C 1191.875 758.414062 1209.066406 736.292969 1212.125 699.449219 C 1212.578125 677.152344 1205.097656 653.558594 1194.660156 630.308594 C 1173.839844 582.359375 1145.078125 537.449219 1111.085938 494.644531 C 1072.601562 437.449219 1030.5625 382.789062 988.839844 328.140625 C 965.058594 286.152344 940.828125 244.78125 913.835938 205.339844 C 890.671875 173.089844 864.132812 146.613281 828.355469 144.191406 C 826.148438 144.039062 823.976562 143.964844 821.816406 143.964844 C 793.34375 143.964844 768.648438 157.179688 747.996094 187.058594 C 736.851562 198.953125 728.367188 212.40625 721.277344 226.636719 C 705.820312 252.144531 696.558594 279.25 688.101562 306.445312 C 684.074219 323.648438 679.65625 334.640625 673.269531 340.125 C 663.355469 356.058594 646.328125 364.46875 626.046875 364.46875 C 613.851562 364.46875 600.476562 361.40625 586.757812 355.070312 C 572.441406 344.742188 560.40625 331.316406 549.277344 316.269531 C 521.746094 286.152344 500.210938 252.8125 477.109375 220.976562 C 457.574219 195.464844 436.527344 171.660156 412.222656 150.703125 C 396.949219 134.226562 380.6875 124.792969 362.253906 124.792969 Z M 362.328125 124.855469 " fill-opacity="1" fill-rule="nonzero"/><path fill="#c9c5e3" d="M 266.746094 144.015625 C 274.707031 144.046875 282.554688 145 290.289062 146.875 L 290.652344 146.964844 L 291.027344 146.964844 C 312.6875 148.882812 332.324219 158.257812 352.816406 176.589844 L 352.941406 176.703125 L 353.070312 176.804688 C 377.914062 196.332031 401.292969 219.105469 426.652344 248.480469 C 432.097656 254.996094 437.582031 261.671875 442.878906 268.132812 C 463.070312 292.765625 483.949219 318.226562 509.160156 341.015625 C 523.703125 355.898438 537.242188 366.449219 551.75 374.207031 L 551.976562 374.320312 L 552.199219 374.417969 C 567.257812 380.691406 582.066406 383.804688 596.257812 383.804688 C 623.863281 383.804688 646.855469 371.40625 659.351562 349.761719 C 665.074219 342.082031 669.605469 331.539062 673.996094 315.667969 C 682.691406 289.203125 693.535156 258.644531 712.042969 230.914062 L 712.105469 230.828125 L 712.167969 230.726562 C 720.953125 216.183594 730.726562 204.523438 742.046875 195.101562 L 742.234375 194.949219 L 742.398438 194.773438 C 762.050781 175.023438 784.449219 165.421875 810.902344 165.421875 C 816.292969 165.4375 821.660156 165.8125 827 166.554688 C 867.003906 172.035156 896.320312 196.871094 919.707031 220.511719 C 951.53125 253.589844 979.777344 288.8125 1005.980469 322.066406 L 1006.253906 322.394531 L 1025.542969 342.972656 C 1067.707031 387.957031 1111.3125 434.464844 1151.40625 481.984375 L 1151.40625 482.074219 L 1151.480469 482.148438 C 1194.886719 529.46875 1227.660156 575.609375 1251.691406 623.230469 C 1266.160156 651.425781 1273.175781 675.003906 1273.148438 695.308594 C 1270.902344 729.414062 1253.914062 752.054688 1221.210938 764.550781 L 1221 764.550781 C 1209.824219 769.519531 1198.261719 773.289062 1186.308594 775.863281 C 1174.355469 778.4375 1162.265625 779.757812 1150.035156 779.824219 C 1121.175781 779.824219 1091.058594 772.417969 1060.703125 757.8125 C 1032.273438 741.902344 1005.890625 723.121094 981.546875 701.46875 C 951.429688 675.859375 922.757812 648.453125 895.0625 621.964844 C 889.207031 616.375 883.378906 610.808594 877.582031 605.261719 C 851.308594 581.570312 824.714844 562.773438 796.292969 547.8125 C 792.464844 545.453125 788.488281 543.367188 784.367188 541.5625 C 780.246094 539.753906 776.019531 538.242188 771.683594 537.023438 C 767.351562 535.808594 762.957031 534.898438 758.496094 534.292969 C 754.039062 533.691406 749.558594 533.398438 745.058594 533.421875 C 740.0625 533.425781 735.089844 533.765625 730.136719 534.4375 C 725.550781 533.949219 720.949219 533.699219 716.335938 533.683594 C 688.363281 533.683594 669.703125 544.175781 655.8125 567.730469 L 655.664062 567.96875 L 655.550781 568.230469 C 647.769531 585.558594 642.375 603.367188 637.917969 618.789062 C 633.496094 633.234375 628.332031 647.417969 622.433594 661.328125 C 602.308594 705.636719 559.113281 729.628906 490.234375 734.648438 C 485.457031 735 480.660156 735.164062 476.019531 735.164062 C 445.777344 735.164062 418.558594 727.921875 395.144531 713.617188 C 374.539062 701.070312 357.335938 683.386719 343.984375 661.152344 C 301.320312 590.515625 270.789062 536.054688 244.851562 484.570312 C 214.445312 420.648438 196.175781 367.441406 187.351562 317.171875 C 182.410156 288.738281 178.253906 255.09375 184.84375 220.9375 C 187.257812 206.441406 191.957031 192.730469 198.949219 179.804688 C 214.308594 156.753906 238.375 144.054688 266.710938 144.054688 M 266.710938 138.933594 C 237.394531 138.933594 211.183594 152.058594 194.554688 177.132812 C 187.25 190.609375 182.328125 204.90625 179.785156 220.023438 C 173.398438 253.300781 176.738281 285.9375 182.296875 318.039062 C 192.585938 376.164062 214.167969 431.851562 240.269531 486.789062 C 270.460938 546.808594 304.519531 605.699219 339.566406 663.722656 C 365.089844 706.238281 409.574219 740.269531 475.992188 740.269531 C 480.738281 740.269531 485.597656 740.089844 490.574219 739.730469 C 555.5 735.089844 604.601562 712.988281 626.914062 663.183594 C 632.910156 649.078125 638.152344 634.699219 642.636719 620.042969 C 647.46875 603.328125 652.675781 586.476562 660.03125 570.085938 C 672.742188 548.566406 689.507812 538.566406 716.148438 538.566406 C 720.796875 538.585938 725.429688 538.855469 730.050781 539.367188 C 734.96875 538.664062 739.914062 538.308594 744.882812 538.300781 C 749.167969 538.277344 753.433594 538.554688 757.683594 539.128906 C 761.929688 539.707031 766.117188 540.574219 770.242188 541.738281 C 774.367188 542.902344 778.390625 544.347656 782.3125 546.074219 C 786.234375 547.804688 790.015625 549.796875 793.660156 552.054688 C 823.777344 567.941406 850.128906 587.304688 873.96875 608.851562 C 907.851562 641.136719 941.605469 674.214844 978.121094 705.246094 C 1002.816406 727.175781 1029.585938 746.179688 1058.433594 762.253906 C 1089.074219 777.011719 1119.667969 784.84375 1150.125 784.84375 C 1162.707031 784.808594 1175.148438 783.480469 1187.453125 780.851562 C 1199.757812 778.222656 1211.660156 774.355469 1223.15625 769.246094 C 1257.289062 756.207031 1276.011719 732.214844 1278.371094 695.398438 C 1278.445312 671.242188 1269.148438 645.742188 1256.347656 620.796875 C 1230.785156 570.152344 1196.113281 523.082031 1155.355469 478.597656 C 1109.152344 423.835938 1059.285156 371.457031 1010.046875 318.804688 C 982.4375 283.820312 954.570312 249.222656 923.460938 216.835938 C 896.621094 189.78125 866.929688 166.816406 827.792969 161.457031 C 822.21875 160.65625 816.617188 160.234375 810.988281 160.203125 C 783.808594 160.203125 759.789062 170.042969 738.871094 191.074219 C 726.449219 201.621094 716.121094 213.925781 707.890625 227.992188 C 689.507812 255.421875 678.789062 284.683594 669.089844 314.273438 C 665.226562 328.253906 661.019531 339.144531 655.0625 347.027344 C 643.226562 367.730469 621.808594 378.773438 596.257812 378.773438 C 589.015625 378.667969 581.855469 377.855469 574.773438 376.34375 C 567.691406 374.828125 560.824219 372.640625 554.171875 369.777344 C 538.359375 361.316406 525.046875 350.035156 512.761719 337.402344 C 481.152344 308.867188 456.71875 276.414062 430.59375 245.246094 C 408.179688 219.28125 384.164062 194.738281 356.269531 172.863281 C 336.96875 155.625 316.1875 144.128906 291.503906 141.957031 C 283.382812 139.984375 275.144531 138.984375 266.785156 138.957031 Z M 266.710938 138.933594 " fill-opacity="1" fill-rule="nonzero"/><g clip-path="url(#425de1f7c9)"><path fill="#c9c5e3" d="M 191.40625 156.589844 C 204.582031 156.6875 217.398438 158.878906 229.855469 163.164062 C 252.078125 170.605469 272.78125 181.761719 297.015625 199.328125 C 324.621094 219.40625 350.972656 242.824219 380.011719 273.152344 C 385.316406 278.710938 390.664062 284.445312 395.832031 289.917969 C 419.175781 314.75 443.292969 340.4375 472.84375 362.699219 C 489.042969 374.933594 503.914062 383.417969 519.625 389.375 C 527.078125 392.300781 534.730469 394.53125 542.585938 396.0625 C 550.445312 397.589844 558.375 398.398438 566.378906 398.488281 C 599.871094 398.488281 627.339844 383.128906 641.746094 356.335938 C 647.144531 346.296875 651.070312 336.03125 655.3125 323.710938 C 665.0625 295.324219 677.273438 262.550781 698.792969 232.722656 C 703.355469 226.242188 708.476562 220.238281 714.160156 214.714844 C 719.839844 209.191406 725.980469 204.238281 732.585938 199.855469 C 751.773438 187.308594 772.640625 181.148438 796.355469 181.148438 C 806.335938 181.199219 816.222656 182.203125 826.007812 184.160156 C 869.328125 192.617188 902.742188 213.523438 929.722656 232.847656 C 964.03125 257.441406 994.308594 283.96875 1027.527344 313.609375 C 1038.820312 323.648438 1050.277344 333.863281 1061.40625 343.726562 C 1106.242188 383.527344 1152.621094 424.675781 1195.75 466.539062 C 1246.222656 515.476562 1284.644531 563.738281 1313.230469 614.046875 C 1330.320312 644.160156 1338.777344 669.421875 1339.066406 691.292969 C 1338.265625 708.472656 1333.269531 722.914062 1323.808594 735.425781 C 1314.347656 747.9375 1300.617188 758.300781 1281.984375 767.050781 C 1252.933594 780.652344 1222.816406 787.539062 1192.539062 787.539062 C 1161.417969 787.539062 1129.144531 780.261719 1096.605469 765.90625 C 1064.792969 751.921875 1034.789062 734.769531 1006.59375 714.457031 C 963.828125 683.511719 923.609375 649.59375 888.136719 619.679688 C 859.496094 595.261719 828.359375 574.605469 794.726562 557.714844 C 773.808594 547.273438 749.816406 539.832031 723.425781 535.605469 C 715.476562 534.261719 707.46875 533.558594 699.40625 533.496094 C 670.984375 533.496094 651.722656 543.960938 636.902344 567.453125 C 627.917969 581.695312 622.246094 596.578125 618.304688 607.945312 C 613.523438 621.75 608.191406 636.496094 601.679688 650.675781 C 579.554688 698.847656 530.152344 725.738281 450.808594 732.867188 C 443.65625 733.507812 436.554688 733.832031 429.675781 733.832031 C 396.136719 733.832031 365.957031 726.214844 339.96875 711.246094 C 334.210938 707.898438 328.683594 704.214844 323.375 700.195312 C 318.070312 696.175781 313.03125 691.84375 308.253906 687.207031 C 303.476562 682.570312 299 677.660156 294.824219 672.476562 C 290.648438 667.292969 286.800781 661.875 283.285156 656.21875 C 247.722656 600.027344 206.539062 533.484375 170.6875 465.921875 C 137.371094 403.066406 117.683594 350.515625 108.738281 300.46875 C 104.03125 274.195312 100.804688 246.011719 108.960938 217.976562 C 110.601562 212.113281 112.824219 206.476562 115.625 201.070312 C 118.425781 195.664062 121.746094 190.601562 125.589844 185.878906 C 141.035156 166.992188 164.414062 156.589844 191.40625 156.589844 M 191.40625 151.082031 C 163.148438 151.082031 138.085938 161.898438 121.335938 182.453125 C 117.265625 187.449219 113.742188 192.804688 110.765625 198.519531 C 107.789062 204.238281 105.421875 210.195312 103.667969 216.394531 C 95.472656 244.617188 98.234375 273 103.316406 301.410156 C 113.605469 359.007812 137.058594 414.199219 165.820312 468.394531 C 200.113281 532.996094 238.863281 596.265625 278.628906 659.09375 C 306.890625 703.753906 356.242188 739.304688 429.675781 739.304688 C 436.664062 739.304688 443.871094 738.972656 451.296875 738.3125 C 525.734375 731.625 581.800781 707.128906 606.6875 652.984375 C 613.199219 638.804688 618.480469 624.285156 623.515625 609.765625 C 628.195312 596.265625 633.550781 583.023438 641.570312 570.402344 C 655.0625 548.992188 672.578125 539.03125 699.40625 539.03125 C 707.179688 539.097656 714.894531 539.777344 722.558594 541.0625 C 747.441406 545.054688 770.894531 551.992188 792.265625 562.671875 C 825.5 579.386719 856.273438 599.8125 884.585938 623.945312 C 923.035156 656.382812 961.59375 688.757812 1003.371094 718.976562 C 1031.867188 739.539062 1062.203125 756.878906 1094.382812 771 C 1127.210938 785.496094 1159.949219 793.113281 1192.550781 793.113281 C 1223.308594 793.113281 1253.925781 786.324219 1284.316406 772.105469 C 1322.640625 754.175781 1342.882812 728.300781 1344.550781 691.507812 C 1344.261719 665.507812 1333.121094 638.089844 1317.984375 611.449219 C 1287.667969 558.105469 1247.1875 508.902344 1199.566406 462.710938 C 1145.605469 410.394531 1087.882812 360.289062 1031.175781 309.617188 C 999.804688 281.648438 968.246094 253.816406 932.910156 228.492188 C 902.390625 206.621094 869.550781 187.171875 827.050781 178.875 C 816.917969 176.839844 806.679688 175.796875 796.34375 175.75 C 790.445312 175.683594 784.578125 176.054688 778.734375 176.863281 C 772.890625 177.667969 767.140625 178.902344 761.480469 180.5625 C 755.820312 182.226562 750.316406 184.296875 744.964844 186.777344 C 739.613281 189.257812 734.472656 192.121094 729.546875 195.363281 C 722.664062 199.929688 716.257812 205.09375 710.335938 210.851562 C 704.410156 216.609375 699.070312 222.867188 694.3125 229.621094 C 673.304688 258.734375 661.035156 290.179688 650.089844 322.027344 C 646.550781 332.992188 642.148438 343.59375 636.878906 353.839844 C 623.074219 379.425781 597.238281 393.089844 566.367188 393.089844 C 558.695312 392.992188 551.09375 392.207031 543.566406 390.730469 C 536.035156 389.253906 528.699219 387.113281 521.558594 384.308594 C 504.265625 377.746094 489.695312 368.609375 476.15625 358.382812 C 440.457031 331.414062 413.152344 299.867188 383.976562 269.363281 C 358.691406 242.921875 331.597656 217.636719 300.226562 194.886719 C 279.847656 180.09375 257.902344 166.765625 231.597656 157.957031 C 218.585938 153.492188 205.203125 151.203125 191.445312 151.09375 Z M 191.40625 151.082031 " fill-opacity="1" fill-rule="nonzero"/></g></svg>